<svg width="112" height="112" viewBox="0 0 112 112" fill="none" xmlns="http://www.w3.org/2000/svg">
<path fill-rule="evenodd" clip-rule="evenodd" d="M102.871 0.525001C103.376 0.838562 103.793 1.27642 104.082 1.79706C104.371 2.31771 104.522 2.90388 104.523 3.5V108.5C104.523 109.428 104.156 110.318 103.502 110.975C102.849 111.631 101.963 112 101.039 112H80.1341C79.21 112 78.3239 111.631 77.6705 110.975C77.0171 110.318 76.65 109.428 76.65 108.5V98H69.6818V108.5C69.6818 109.428 69.3147 110.318 68.6614 110.975C68.008 111.631 67.1218 112 66.1977 112H3.48409C2.56005 112 1.67386 111.631 1.02047 110.975C0.367073 110.318 0 109.428 0 108.5V70C0.000554993 69.2657 0.230982 68.5502 0.658667 67.9548C1.08635 67.3593 1.68963 66.914 2.38312 66.682L41.8091 53.48V31.5C41.8091 30.8506 41.989 30.2139 42.3287 29.6613C42.6683 29.1087 43.1543 28.662 43.7323 28.371L99.4778 0.371001C100.009 0.103642 100.6 -0.0225659 101.194 0.00439033C101.788 0.0313465 102.366 0.21057 102.871 0.525001ZM41.8091 60.858L6.96818 72.52V105H41.8091V60.858ZM48.7773 105H62.7136V94.5C62.7136 93.5717 63.0807 92.6815 63.7341 92.0251C64.3875 91.3687 65.2737 91 66.1977 91H80.1341C81.0581 91 81.9443 91.3687 82.5977 92.0251C83.2511 92.6815 83.6182 93.5717 83.6182 94.5V105H97.5545V9.163L48.7773 33.663V105Z" fill="#004425"/>
<path d="M13.9363 77H20.9045V84H13.9363V77ZM27.8726 77H34.8408V84H27.8726V77ZM13.9363 91H20.9045V98H13.9363V91ZM27.8726 91H34.8408V98H27.8726V91ZM55.7454 63H62.7135V70H55.7454V63ZM69.6817 63H76.6499V70H69.6817V63ZM55.7454 77H62.7135V84H55.7454V77ZM69.6817 77H76.6499V84H69.6817V77ZM83.6181 63H90.5863V70H83.6181V63ZM83.6181 77H90.5863V84H83.6181V77ZM55.7454 49H62.7135V56H55.7454V49ZM69.6817 49H76.6499V56H69.6817V49ZM83.6181 49H90.5863V56H83.6181V49ZM55.7454 35H62.7135V42H55.7454V35ZM69.6817 35H76.6499V42H69.6817V35ZM83.6181 35H90.5863V42H83.6181V35ZM83.6181 21H90.5863V28H83.6181V21Z" fill="#004425"/>
</svg>
