<svg width="23" height="22" viewBox="0 0 23 22" fill="none" xmlns="http://www.w3.org/2000/svg">
<g clip-path="url(#clip0_772_2531)">
<path d="M20.6667 2.06198H17.6875V0.686982C17.6876 0.504646 17.6153 0.329729 17.4865 0.200712C17.3576 0.0716946 17.1828 -0.000854842 17.0005 -0.000976399C16.8181 -0.00109796 16.6432 0.0712183 16.5142 0.200064C16.3852 0.328909 16.3126 0.503729 16.3125 0.686065V2.06198H12.1875V0.686982C12.1876 0.596698 12.1698 0.507287 12.1353 0.423852C12.1008 0.340418 12.0503 0.264595 11.9865 0.200712C11.9227 0.136829 11.8469 0.0861375 11.7635 0.0515318C11.6801 0.0169261 11.5907 -0.00091622 11.5005 -0.00097641C11.3181 -0.00109797 11.1432 0.0712183 11.0142 0.200064C10.8852 0.328909 10.8126 0.503729 10.8125 0.686065V2.06198H6.6875V0.686982C6.68756 0.596698 6.66984 0.507287 6.63534 0.423852C6.60085 0.340418 6.55026 0.264595 6.48646 0.200712C6.42266 0.136829 6.34691 0.0861375 6.26352 0.0515318C6.18013 0.0169261 6.09074 -0.00091622 6.00046 -0.00097641C5.81812 -0.00109797 5.64321 0.0712183 5.51419 0.200064C5.38517 0.328909 5.31262 0.503729 5.3125 0.686065V2.06198H2.33333C1.84726 2.06198 1.38109 2.25501 1.03729 2.59863C0.693505 2.94225 0.500243 3.40833 0.5 3.8944V20.1652C0.5 20.6515 0.693154 21.1178 1.03697 21.4616C1.38079 21.8054 1.8471 21.9986 2.33333 21.9986H20.6667C21.1529 21.9986 21.6192 21.8054 21.963 21.4616C22.3068 21.1178 22.5 20.6515 22.5 20.1652V3.8944C22.4998 3.40833 22.3065 2.94225 21.9627 2.59863C21.6189 2.25501 21.1527 2.06198 20.6667 2.06198ZM21.125 20.1661C21.125 20.2875 21.0768 20.404 20.9911 20.4899C20.9053 20.5758 20.789 20.6242 20.6676 20.6245H2.33333C2.21178 20.6245 2.0952 20.5762 2.00924 20.4902C1.92329 20.4043 1.875 20.2877 1.875 20.1661V3.89532C1.87524 3.77392 1.92364 3.65757 2.00957 3.57182C2.09549 3.48606 2.21193 3.4379 2.33333 3.4379H5.3125V4.8129C5.31238 4.99523 5.3847 5.17015 5.51354 5.29917C5.64239 5.42819 5.81721 5.50074 5.99954 5.50086C6.18188 5.50098 6.35679 5.42866 6.48581 5.29982C6.61483 5.17097 6.68738 4.99615 6.6875 4.81382V3.4379H10.8125V4.8129C10.8124 4.99523 10.8847 5.17015 11.0135 5.29917C11.1424 5.42819 11.3172 5.50074 11.4995 5.50086C11.6819 5.50098 11.8568 5.42866 11.9858 5.29982C12.1148 5.17097 12.1874 4.99615 12.1875 4.81382V3.4379H16.3125V4.8129C16.3124 4.99523 16.3847 5.17015 16.5135 5.29917C16.6424 5.42819 16.8172 5.50074 16.9995 5.50086C17.1819 5.50098 17.3568 5.42866 17.4858 5.29982C17.6148 5.17097 17.6874 4.99615 17.6875 4.81382V3.4379H20.6667C20.7879 3.43814 20.9041 3.48641 20.9898 3.57214C21.0756 3.65787 21.1238 3.77408 21.1241 3.89532L21.125 20.1661Z" fill="#BB0101" fill-opacity="0.42"/>
<path d="M5.3125 8.25H8.0625V10.3125H5.3125V8.25ZM5.3125 11.6875H8.0625V13.75H5.3125V11.6875ZM5.3125 15.125H8.0625V17.1875H5.3125V15.125ZM10.125 15.125H12.875V17.1875H10.125V15.125ZM10.125 11.6875H12.875V13.75H10.125V11.6875ZM10.125 8.25H12.875V10.3125H10.125V8.25ZM14.9375 15.125H17.6875V17.1875H14.9375V15.125ZM14.9375 11.6875H17.6875V13.75H14.9375V11.6875ZM14.9375 8.25H17.6875V10.3125H14.9375V8.25Z" fill="#BB0101" fill-opacity="0.42"/>
</g>
<defs>
<clipPath id="clip0_772_2531">
<rect width="22" height="22" fill="white" transform="translate(0.5)"/>
</clipPath>
</defs>
</svg>
