<svg width="24" height="24" viewBox="0 0 24 24" fill="none" xmlns="http://www.w3.org/2000/svg">
<path d="M12.276 0.5C15.8927 0.5 19.2416 2.10425 21.4622 4.8056C21.5255 4.88217 21.5727 4.97069 21.601 5.06588C21.6294 5.16108 21.6383 5.261 21.6273 5.35971C21.6162 5.45842 21.5854 5.5539 21.5367 5.64046C21.488 5.72703 21.4224 5.80291 21.3438 5.8636C21.1837 5.98907 20.981 6.04724 20.7788 6.02577C20.5765 6.0043 20.3906 5.90488 20.2605 5.7486C19.2894 4.57241 18.0694 3.62642 16.6885 2.9789C15.3075 2.33138 13.8001 1.99848 12.2748 2.0042C6.6226 2.0042 2.03985 6.48 2.03985 12C2.03985 17.52 6.6226 21.9958 12.2748 21.9958C13.822 22.0017 15.3507 21.6592 16.7475 20.9937C18.1442 20.3281 19.3732 19.3567 20.3432 18.1514C20.4712 17.9935 20.6556 17.8916 20.8574 17.8673C21.0592 17.8431 21.2625 17.8983 21.4242 18.0214C21.5036 18.0811 21.5701 18.156 21.6199 18.2419C21.6696 18.3278 21.7016 18.4228 21.714 18.5212C21.7263 18.6197 21.7187 18.7197 21.6917 18.8152C21.6646 18.9106 21.6187 18.9997 21.5565 19.0771C19.3393 21.8486 15.9456 23.5 12.276 23.5C5.77045 23.5 0.5 18.3514 0.5 12C0.5 5.64855 5.7716 0.5 12.276 0.5ZM20.1627 8.734L23.2746 11.847C23.5759 12.1472 23.5816 12.6291 23.2884 12.9235L20.2478 15.9629C20.1035 16.1041 19.9091 16.1822 19.7072 16.18C19.5054 16.1779 19.3126 16.0956 19.1714 15.9514C19.0997 15.8815 19.0426 15.7982 19.0031 15.7062C18.9637 15.6142 18.9428 15.5153 18.9416 15.4152C18.9404 15.3152 18.959 15.2158 18.9963 15.1229C19.0335 15.03 19.0887 14.9454 19.1588 14.8738L20.9378 13.0948H9.0813C8.98132 13.096 8.88208 13.0775 8.78925 13.0404C8.69642 13.0032 8.61182 12.9482 8.54027 12.8783C8.46872 12.8085 8.41163 12.7253 8.37226 12.6333C8.33288 12.5414 8.312 12.4427 8.3108 12.3427C8.3108 11.9264 8.6558 11.5894 9.0813 11.5894H20.8906L19.0989 9.79775C18.9546 9.65667 18.8721 9.46402 18.8697 9.26217C18.8674 9.06031 18.9453 8.86578 19.0863 8.72135C19.2307 8.58032 19.4253 8.50242 19.6271 8.50479C19.829 8.50717 20.0216 8.58961 20.1627 8.734Z" fill="#004425"/>
</svg>
