<svg width="22" height="22" viewBox="0 0 22 22" fill="none" xmlns="http://www.w3.org/2000/svg">
<path d="M21.8839 12.5475C21.9403 12.6378 21.9771 12.7377 21.9922 12.8414C22.0073 12.9451 22.0004 13.0506 21.9719 13.1518C21.9434 13.2531 21.8939 13.348 21.8261 13.4311C21.7584 13.5143 21.6738 13.5841 21.5772 13.6364C21.4807 13.6888 21.374 13.7226 21.2634 13.7361C21.1529 13.7496 21.0405 13.7425 20.9329 13.715C20.8253 13.6876 20.7245 13.6405 20.6364 13.5763C20.5483 13.5122 20.4745 13.4323 20.4194 13.3413L18.4765 10.182C17.3318 10.9017 16.073 11.4469 14.7468 11.7972L15.3612 15.0683C15.4001 15.2756 15.3497 15.489 15.221 15.6614C15.0924 15.8339 14.8961 15.9513 14.6752 15.9879C14.6264 15.9959 14.5769 16 14.5274 16C14.3288 15.9997 14.1366 15.9339 13.9845 15.8139C13.8325 15.694 13.7302 15.5277 13.6956 15.3441L13.0913 12.1263C11.7074 12.3161 10.3015 12.3157 8.91773 12.125L8.31337 15.3426C8.27887 15.5263 8.17663 15.6927 8.02456 15.8126C7.87249 15.9326 7.6803 15.9985 7.48166 15.9988C7.43213 15.9988 7.38269 15.9947 7.3339 15.9867C7.11305 15.9501 6.91671 15.8327 6.78807 15.6602C6.65943 15.4878 6.60903 15.2744 6.64795 15.0671L7.26245 11.7947C5.93781 11.4438 4.68056 10.8985 3.53726 10.1791L1.58297 13.357C1.52821 13.4486 1.45461 13.5291 1.36645 13.5938C1.27829 13.6586 1.17732 13.7062 1.0694 13.734C0.961474 13.7619 0.848742 13.7693 0.737737 13.7559C0.626733 13.7425 0.519666 13.7085 0.422745 13.656C0.325824 13.6035 0.240977 13.5334 0.173124 13.4498C0.105271 13.3663 0.0557617 13.2709 0.0274675 13.1692C-0.000826676 13.0676 -0.00734295 12.9617 0.00829634 12.8576C0.0239356 12.7536 0.0614194 12.6535 0.118574 12.5631L2.1793 9.21223C1.46054 8.6315 0.799622 7.99052 0.204715 7.29723C0.133962 7.21625 0.0809808 7.12291 0.0488246 7.02262C0.0166684 6.92232 0.00597304 6.81704 0.0173549 6.71284C0.0287367 6.60864 0.0619705 6.50759 0.115141 6.41551C0.168312 6.32342 0.240369 6.24213 0.327158 6.17631C0.413947 6.11049 0.513753 6.06145 0.620824 6.03201C0.727895 6.00256 0.840114 5.99331 0.951013 6.00477C1.06191 6.01623 1.1693 6.04818 1.26699 6.09878C1.36467 6.14938 1.45073 6.21763 1.52019 6.2996C2.18047 7.07098 2.93402 7.7677 3.76566 8.37574C3.77232 8.38011 3.77835 8.38507 3.78479 8.38963C5.84847 9.89694 8.39466 10.7044 11.0092 10.6807C13.6231 10.7044 16.1687 9.89726 18.232 8.39062C18.2376 8.38665 18.2428 8.38259 18.2485 8.37872C19.0818 7.76997 19.8367 7.07224 20.4981 6.2996C20.6397 6.1376 20.8437 6.0347 21.0657 6.01333C21.2877 5.99196 21.5097 6.05384 21.6833 6.1855C21.8569 6.31715 21.968 6.5079 21.9924 6.71615C22.0168 6.92441 21.9525 7.13328 21.8136 7.29723C21.2175 7.99186 20.5552 8.63397 19.8348 9.2156L21.8839 12.5475Z" fill="#6C82C1"/>
</svg>
