<svg width="22" height="22" viewBox="0 0 22 22" xmlns="http://www.w3.org/2000/svg">
<path d="M21.8221 10.6599C19.5168 6.19928 15.4739 3.5 11 3.5C6.52612 3.5 2.47637 6.19928 0.191542 10.6599L0 10.9964L0.177861 11.3401C2.48321 15.8007 6.52612 18.5 11 18.5C15.4739 18.5 19.5236 15.8365 21.8221 11.3401L22 10.9964L21.8221 10.6599ZM11 17.0322C7.14863 17.0322 3.61194 14.784 1.5597 10.9964C3.61194 7.20883 7.14863 4.96062 11 4.96062C14.8514 4.96062 18.347 7.21599 20.4335 10.9964C18.347 14.784 14.8445 17.0322 11 17.0322V17.0322Z" fill="#6C82C1"/>
<path d="M11.1996 15.9297C13.7914 15.9297 15.8924 13.7307 15.8924 11.018C15.8924 8.30535 13.7914 6.10631 11.1996 6.10631C8.60787 6.10631 6.50684 8.30535 6.50684 11.018C6.50684 13.7307 8.60787 15.9297 11.1996 15.9297Z" fill="#6C82C1"/>
</svg>
