<svg width="26"
  height="26"
  viewBox="0 0 26 26"
  fill="none"
  xmlns="http://www.w3.org/2000/svg">
  <path d="M9.02833 5.19675C10.1167 4.27675 11.5867 3.83341 13 3.83341C14.4133 3.83341 15.8833 4.27675 16.9717 5.19675C18.0133 6.07675 18.8333 7.50008 18.8333 9.78008C18.8333 10.4001 18.5767 11.3734 18.0167 12.6517C17.4767 13.8901 16.725 15.2517 15.905 16.5967C14.9761 18.1023 13.9972 19.5765 12.97 21.0167C11.9309 19.564 10.9507 18.07 10.0317 16.5384C9.22333 15.1817 8.48833 13.8117 7.96 12.5801C7.41167 11.3034 7.16667 10.3534 7.16667 9.78008C7.16667 7.50008 7.98667 6.07675 9.02833 5.19675V5.19675ZM14.0117 22.4251C16.2667 19.2717 20.5 13.0701 20.5 9.78008C20.5 4.31341 16.4617 2.16675 13 2.16675C9.53833 2.16675 5.5 4.31341 5.5 9.78008C5.5 12.9151 9.625 19.2634 11.9467 22.4467C12.37 23.0267 12.7333 23.5017 13 23.8334L13.3283 23.3784L14.0117 22.4251V22.4251Z"
    fill="#004425"/>
</svg>
