<svg width="20" height="20" viewBox="0 0 20 20" fill="none" xmlns="http://www.w3.org/2000/svg">
<path fill-rule="evenodd" clip-rule="evenodd" d="M5.59379 6.8225C5.23879 6.8225 4.95129 6.52625 5.00629 6.17625C5.35004 4.05 6.97004 2.5 9.78129 2.5C12.5938 2.5 14.49 4.2 14.49 6.51875C14.49 8.19875 13.6588 9.37875 12.2525 10.235C10.8775 11.0587 10.485 11.6325 10.485 12.7475V12.785C10.485 12.9508 10.4192 13.1097 10.302 13.2269C10.1848 13.3442 10.0258 13.41 9.86004 13.41H8.89754C8.73285 13.41 8.57482 13.345 8.45779 13.2292C8.34076 13.1133 8.27418 12.9559 8.27254 12.7912L8.26879 12.5412C8.21504 11.015 8.86504 10.04 10.325 9.15125C11.6125 8.36125 12.0713 7.7325 12.0713 6.61625C12.0713 5.3925 11.1238 4.49375 9.66379 4.49375C8.40254 4.49375 7.52629 5.155 7.24129 6.24625C7.15879 6.56375 6.89379 6.8225 6.56629 6.8225H5.59504H5.59379ZM9.37004 17.5C10.1475 17.5 10.7388 16.9075 10.7388 16.1375C10.7388 15.365 10.1475 14.7725 9.37004 14.7725C8.61254 14.7725 8.01129 15.365 8.01129 16.1363C8.01129 16.9075 8.61254 17.5 9.37004 17.5Z" fill="#004425"/>
</svg>
