<svg width="25"
  height="26"
  viewBox="0 0 25 26"
  fill="none"
  xmlns="http://www.w3.org/2000/svg">
  <path d="M8.52833 5.19675C9.61667 4.27675 11.0867 3.83341 12.5 3.83341C13.9133 3.83341 15.3833 4.27675 16.4717 5.19675C17.5133 6.07675 18.3333 7.50008 18.3333 9.78008C18.3333 10.4001 18.0767 11.3734 17.5167 12.6517C16.9767 13.8901 16.225 15.2517 15.405 16.5967C14.4761 18.1023 13.4972 19.5765 12.47 21.0167C11.4309 19.564 10.4507 18.07 9.53167 16.5384C8.72333 15.1817 7.98833 13.8117 7.46 12.5801C6.91167 11.3034 6.66667 10.3534 6.66667 9.78008C6.66667 7.50008 7.48667 6.07675 8.52833 5.19675V5.19675ZM13.5117 22.4251C15.7667 19.2717 20 13.0701 20 9.78008C20 4.31341 15.9617 2.16675 12.5 2.16675C9.03833 2.16675 5 4.31341 5 9.78008C5 12.9151 9.125 19.2634 11.4467 22.4467C11.87 23.0267 12.2333 23.5017 12.5 23.8334L12.8283 23.3784L13.5117 22.4251V22.4251Z"
    fill="#EE2D1E"/>
</svg>
