<svg width="16" height="23" viewBox="0 0 16 23" fill="none" xmlns="http://www.w3.org/2000/svg">
<path d="M3.66947 3.1512C4.80133 2.1944 6.33013 1.73333 7.8 1.73333C9.26987 1.73333 10.7987 2.1944 11.9305 3.1512C13.0139 4.0664 13.8667 5.54667 13.8667 7.91787C13.8667 8.56267 13.5997 9.57493 13.0173 10.9044C12.4557 12.1923 11.674 13.6084 10.8212 15.0072C9.85513 16.573 8.83709 18.1061 7.7688 19.604C6.68816 18.0931 5.66871 16.5394 4.71293 14.9465C3.87227 13.5356 3.10787 12.1108 2.5584 10.8299C1.98813 9.50213 1.73333 8.51413 1.73333 7.91787C1.73333 5.54667 2.58613 4.0664 3.66947 3.1512ZM8.85213 21.0687C11.1973 17.7892 15.6 11.3395 15.6 7.91787C15.6 2.23253 11.4001 0 7.8 0C4.19987 0 0 2.23253 0 7.91787C0 11.1783 4.29 17.7805 6.70453 21.0912C7.1448 21.6944 7.52267 22.1884 7.8 22.5333L8.14147 22.0601L8.85213 21.0687Z" fill="#BB0101"/>
<path d="M7.29377 10.2521C7.3278 10.6042 7.38461 10.8663 7.46407 11.0384C7.54338 11.2104 7.68555 11.2968 7.89016 11.2968C7.92855 11.2968 7.963 11.2905 7.99718 11.284C8.03163 11.2905 8.06566 11.2968 8.10391 11.2968C8.30824 11.2968 8.45013 11.2104 8.53 11.0384C8.60918 10.8663 8.66613 10.6042 8.70002 10.2521L8.88171 7.53379C8.91574 7.00392 8.93275 6.62353 8.93275 6.3929C8.93275 6.07875 8.85049 5.83364 8.68624 5.658C8.52129 5.48221 8.30458 5.39404 8.03599 5.39404C8.02193 5.39404 8.0111 5.39728 7.99746 5.39784C7.98382 5.39728 7.97285 5.39404 7.95893 5.39404C7.69005 5.39404 7.47363 5.48207 7.30882 5.658C7.14429 5.83378 7.06202 6.07889 7.06202 6.39304C7.06202 6.62381 7.07918 7.00406 7.11307 7.53393L7.29461 10.2521M8.00266 12.2894C7.74264 12.2894 7.5206 12.372 7.33666 12.5361C7.153 12.7012 7.06104 12.9006 7.06104 13.1349C7.06104 13.4004 7.15399 13.6081 7.33961 13.7591C7.5258 13.9104 7.74264 13.9867 7.99 13.9867C8.24229 13.9867 8.46208 13.9116 8.6501 13.7624C8.83811 13.6129 8.93135 13.4038 8.93135 13.1347C8.93135 12.9005 8.84135 12.7011 8.66177 12.536C8.48233 12.372 8.26254 12.2894 8.0021 12.2894" fill="#BB0101"/>
</svg>
