<svg
    width="207"
    height="335"
    viewBox="0 0 207 335"
    fill="none"
    xmlns="http://www.w3.org/2000/svg">
    <g class="marker">
        <animateTransform
            attributeName="transform"
            attributeType="XML"
            type="translate"
            values="0 0;0 25;0 0"
            dur="2s"
            repeatCount="indefinite"/>
        <g class="marker-background">
            <path
                d="M103.5 205.53C160.126 205.53 206.032 159.527 206.032 102.78C206.032 46.0325 160.126 0.0297852 103.5 0.0297852C46.8732 0.0297852 0.96814 46.0325 0.96814 102.78C0.96814 159.527 46.8732 205.53 103.5 205.53Z"
                fill="#004425"/>
            <path
                d="M202.614 125.352C187.988 180.541 122.452 255.995 101.641 274.03C78.91 252.633 22.0796 189.544 4.38586 125.352C4.38586 65.5897 61.5341 97.6897 94.0985 97.6897C126.663 97.6897 217.24 70.1623 202.614 125.352Z"
                fill="#004425"/>
        </g>
        <g class="building">
            <path
                fill-rule="evenodd"
                clip-rule="evenodd"
                d="M151.871 47.5242C152.376 47.8377 152.793 48.2756 153.082 48.7962C153.371 49.3169 153.522 49.9031 153.523 50.4992V155.499C153.523 156.427 153.156 157.318 152.502 157.974C151.849 158.63 150.963 158.999 150.039 158.999H129.134C128.21 158.999 127.324 158.63 126.67 157.974C126.017 157.318 125.65 156.427 125.65 155.499V144.999H118.682V155.499C118.682 156.427 118.315 157.318 117.661 157.974C117.008 158.63 116.122 158.999 115.198 158.999H52.4841C51.5601 158.999 50.6739 158.63 50.0205 157.974C49.3671 157.318 49 156.427 49 155.499V116.999C49.0006 116.265 49.231 115.549 49.6587 114.954C50.0864 114.358 50.6896 113.913 51.3831 113.681L90.8091 100.479V78.4992C90.8091 77.8497 90.989 77.2131 91.3287 76.6605C91.6683 76.1079 92.1543 75.6611 92.7323 75.3702L148.478 47.3702C149.009 47.1028 149.6 46.9766 150.194 47.0036C150.788 47.0305 151.366 47.2097 151.871 47.5242ZM90.8091 107.857L55.9682 119.519V151.999H90.8091V107.857ZM97.7773 151.999H111.714V141.499C111.714 140.571 112.081 139.681 112.734 139.024C113.387 138.368 114.274 137.999 115.198 137.999H129.134C130.058 137.999 130.944 138.368 131.598 139.024C132.251 139.681 132.618 140.571 132.618 141.499V151.999H146.555V56.1622L97.7773 80.6622V151.999Z"
                fill="white"/>
            <path
                d="M62.9364 123.999H69.9046V130.999H62.9364V123.999ZM76.8728 123.999H83.8409V130.999H76.8728V123.999ZM62.9364 137.999H69.9046V144.999H62.9364V137.999ZM76.8728 137.999H83.8409V144.999H76.8728V137.999ZM104.745 109.999H111.714V116.999H104.745V109.999ZM118.682 109.999H125.65V116.999H118.682V109.999ZM104.745 123.999H111.714V130.999H104.745V123.999ZM118.682 123.999H125.65V130.999H118.682V123.999ZM132.618 109.999H139.586V116.999H132.618V109.999ZM132.618 123.999H139.586V130.999H132.618V123.999ZM104.745 95.9991H111.714V102.999H104.745V95.9991ZM118.682 95.9991H125.65V102.999H118.682V95.9991ZM132.618 95.9991H139.586V102.999H132.618V95.9991ZM104.745 81.9991H111.714V88.9991H104.745V81.9991ZM118.682 81.9991H125.65V88.9991H118.682V81.9991ZM132.618 81.9991H139.586V88.9991H132.618V81.9991ZM132.618 67.9991H139.586V74.9991H132.618V67.9991Z"
                fill="white"/>
        </g>
    </g>

    <g class="shadow" transform="translate(0, 20), scale(1)">
        <animate
            attributeName="opacity"
            values="0.5;0.8;0.5"
            dur="2s"
            repeatCount="indefinite"
        />
        <animateTransform
            attributeName="transform"
            attributeType="XML"
            type="scale"
            values="1.20;1;1.20"
            dur="2s"
            repeatCount="indefinite"
        />
        <animateTransform
            attributeName="transform"
            attributeType="XML"
            type="translate"
            values="-17 -30;0 25;-17 -30"
            dur="2s"
            repeatCount="indefinite"
            additive="sum"
        />
        <path
            d="M122.923 263.709C121.768 266.267 120.62 268.54 119.581 270.443C131.073 273.175 137.682 278.267 137.682 282.27C137.682 288.023 124.04 296.046 101.824 296.046C79.607 296.046 65.9654 288.023 65.9654 282.27C65.9654 278.299 72.4679 273.25 83.7984 270.499C82.7526 268.602 81.5998 266.336 80.436 263.787C68.4494 267.112 59.3339 273.358 59.3339 282.27C59.3339 296.089 81.2265 303.547 101.824 303.547C122.421 303.547 144.314 296.089 144.314 282.27C144.314 273.29 135.05 267.015 122.923 263.709Z"
            fill="#004425"
        />
    </g>
</svg>
