<svg viewBox="0 0 614 307"
    fill="none"
    xmlns="http://www.w3.org/2000/svg">
    <path d="M288.034 65.1676C282.89 65.0762 277.808 66.2643 273.242 68.6208C272.915 68.7893 272.714 69.1282 272.714 69.4955V184.288C272.714 184.776 272.319 185.171 271.831 185.171C271.342 185.171 270.947 184.776 270.947 184.288V117.626C270.947 117.074 270.499 116.635 269.95 116.702C269.622 116.742 269.294 116.787 268.966 116.809C268.759 116.823 268.59 116.654 268.59 116.446C268.59 116.226 268.401 116.052 268.181 116.072C261.413 116.671 256.157 118.034 254.71 121.753C254.665 121.868 254.603 121.976 254.527 122.073C253.812 122.98 253.436 124.11 253.467 125.268V188.1C253.467 188.652 253.019 189.1 252.467 189.1H250.913C250.371 189.1 249.931 189.539 249.931 190.082C249.931 190.624 249.492 191.064 248.949 191.064H247.396C246.844 191.064 246.396 191.511 246.396 192.064V201.571C246.396 201.951 246.088 202.259 245.709 202.259C245.329 202.259 245.021 202.567 245.021 202.946V205.303C245.021 205.466 244.889 205.598 244.727 205.598C244.564 205.598 244.432 205.73 244.432 205.892V215.204C244.432 215.756 243.984 216.204 243.432 216.204H242.093C241.541 216.204 241.093 215.756 241.093 215.204V191.815C241.093 191.708 241.076 191.601 241.042 191.499L240.948 191.218C240.914 191.116 240.897 191.009 240.897 190.901V189.403C240.897 189.236 240.761 189.1 240.593 189.1C240.432 189.1 240.3 188.975 240.29 188.815L240.111 185.957L239.953 184.062C239.929 183.769 240.116 183.548 240.253 183.288C240.287 183.223 240.308 183.138 240.308 183.011C240.308 182.855 240.245 182.705 240.135 182.594C240.024 182.484 239.875 182.422 239.718 182.422C239.562 182.422 239.412 182.484 239.302 182.594C239.191 182.705 239.129 182.855 239.129 183.011C239.129 183.092 239.162 183.173 239.215 183.253C239.376 183.5 239.508 183.769 239.483 184.062L239.325 185.957L239.147 188.815C239.137 188.975 239.004 189.1 238.844 189.1C238.676 189.1 238.54 189.236 238.54 189.403V189.492C238.54 189.709 238.364 189.885 238.147 189.885H236.996C236.655 189.885 236.379 189.609 236.379 189.269C236.379 189.043 236.256 188.836 236.058 188.728L234.443 187.847C234.296 187.767 234.131 187.725 233.964 187.725H233.669C233.514 187.725 233.361 187.761 233.222 187.83L231.412 188.735C231.206 188.838 231.076 189.048 231.076 189.278C231.076 189.613 230.805 189.885 230.469 189.885H229.309C229.092 189.885 228.916 189.709 228.916 189.492V189.403C228.916 189.236 228.78 189.1 228.612 189.1C228.452 189.1 228.319 188.975 228.309 188.815L228.13 185.957L227.972 184.062C227.948 183.769 228.135 183.548 228.272 183.288C228.306 183.223 228.327 183.138 228.327 183.011C228.327 182.855 228.265 182.705 228.154 182.594C228.044 182.484 227.894 182.422 227.738 182.422C227.581 182.422 227.431 182.484 227.321 182.594C227.21 182.705 227.148 182.855 227.148 183.011C227.148 183.092 227.182 183.173 227.234 183.253C227.395 183.5 227.527 183.769 227.503 184.062L227.345 185.957L227.155 188.998C227.151 189.053 227.195 189.1 227.25 189.1C227.302 189.1 227.345 189.142 227.345 189.195V190.901C227.345 191.009 227.327 191.116 227.293 191.218L227.2 191.499C227.166 191.601 227.148 191.708 227.148 191.815V200.67C227.148 201.222 226.701 201.67 226.148 201.67H225.006C224.454 201.67 224.006 201.222 224.006 200.67V176.235C224.006 176.181 224.05 176.137 224.104 176.137C224.158 176.137 224.202 176.093 224.202 176.039V173.013C224.202 172.786 224.018 172.602 223.791 172.602C223.579 172.602 223.401 172.44 223.381 172.229L223.024 168.477L222.858 165.984C222.838 165.696 222.963 165.434 223.171 165.235C223.305 165.108 223.417 164.954 223.417 164.745C223.417 164.537 223.334 164.337 223.187 164.19C223.039 164.042 222.839 163.96 222.631 163.96C222.423 163.96 222.223 164.042 222.075 164.19C221.928 164.337 221.845 164.537 221.845 164.745C221.845 164.893 221.873 165.013 221.929 165.116C222.12 165.47 222.417 165.792 222.39 166.194L222.238 168.477L221.881 172.229C221.861 172.44 221.683 172.602 221.471 172.602C221.244 172.602 221.06 172.786 221.06 173.013V174.155C221.06 174.707 220.612 175.155 220.06 175.155H218.917C218.365 175.155 217.917 174.707 217.917 174.155V173.78C217.917 173.238 217.478 172.798 216.935 172.798C216.393 172.798 215.953 172.358 215.953 171.816V153.459C215.953 153.401 215.906 153.354 215.848 153.354C215.796 153.354 215.751 153.315 215.744 153.263L215.57 152.049C215.564 152.002 215.56 151.955 215.56 151.908V151.136C215.56 151.047 215.596 150.962 215.659 150.899C215.721 150.836 215.767 150.74 215.71 150.673C215.706 150.669 215.703 150.665 215.699 150.662C215.696 150.658 215.692 150.654 215.688 150.651C215.62 150.593 215.525 150.639 215.462 150.702L215.437 150.727C215.39 150.774 215.358 150.862 215.369 150.927C215.392 151.064 215.56 151.109 215.56 151.247V151.914C215.56 151.957 215.557 152 215.551 152.043L215.377 153.263C215.369 153.315 215.325 153.354 215.273 153.354C215.215 153.354 215.168 153.401 215.168 153.459V153.845C215.168 154.007 215.036 154.139 214.873 154.139C214.71 154.139 214.578 154.007 214.578 153.845V153.747C214.578 153.53 214.402 153.354 214.186 153.354H213.891C213.728 153.354 213.596 153.222 213.596 153.059C213.596 152.896 213.464 152.765 213.302 152.765H212.901C212.53 152.765 212.224 152.448 212.363 152.103C212.396 152.02 212.421 151.933 212.421 151.843C212.421 151.352 212.307 150.866 212.087 150.426C211.897 150.046 211.633 149.71 211.312 149.435C211.151 149.297 211.043 149.102 211.043 148.89V148.549C211.043 148.382 210.908 148.247 210.741 148.247C210.58 148.247 210.448 148.121 210.44 147.96L209.865 135.874L209.483 129.585C209.478 129.499 209.568 129.44 209.644 129.479L209.679 129.496C209.785 129.549 209.884 129.412 209.8 129.328C209.742 129.27 209.77 129.17 209.846 129.141C210.153 129.026 210.418 128.817 210.601 128.541C210.798 128.247 210.888 127.896 210.86 127.546C210.854 127.467 210.851 127.389 210.852 127.31C210.853 127.017 210.772 126.729 210.616 126.48C210.605 126.462 210.594 126.445 210.582 126.428C210.533 126.356 210.455 126.447 210.494 126.524C210.634 126.804 210.688 127.118 210.65 127.428C210.616 127.854 210.444 128.256 210.161 128.575C209.909 128.858 209.583 129.061 209.22 129.162C209.127 129.188 209.03 129.193 208.935 129.177C208.553 129.109 208.203 128.915 207.944 128.623C207.652 128.295 207.496 127.867 207.508 127.428C207.508 127.123 207.579 126.823 207.715 126.55C207.762 126.456 207.672 126.36 207.613 126.447C207.601 126.465 207.589 126.483 207.577 126.502C207.403 126.78 207.311 127.101 207.311 127.428C207.318 127.805 207.432 128.172 207.641 128.485C207.82 128.754 208.062 128.974 208.346 129.126C208.414 129.162 208.431 129.255 208.377 129.309C208.289 129.397 208.392 129.539 208.503 129.484L208.514 129.479C208.59 129.44 208.68 129.499 208.675 129.585L208.293 135.874L207.718 147.96C207.71 148.121 207.578 148.247 207.417 148.247C207.25 148.247 207.115 148.382 207.115 148.549V148.902C207.115 149.108 207.015 149.299 206.863 149.438C206.551 149.722 206.293 150.062 206.103 150.442C205.864 150.919 205.74 151.445 205.74 151.979C205.74 152.372 205.74 152.765 205.937 152.765H204.856C204.694 152.765 204.562 152.896 204.562 153.059C204.562 153.222 204.43 153.354 204.267 153.354H203.972C203.756 153.354 203.58 153.53 203.58 153.747V153.845C203.58 154.007 203.448 154.139 203.285 154.139C203.122 154.139 202.99 154.007 202.99 153.845V153.459C202.99 153.401 202.943 153.354 202.885 153.354C202.833 153.354 202.789 153.315 202.781 153.263L202.608 152.049C202.601 152.002 202.598 151.955 202.598 151.908V151.136C202.598 151.047 202.633 150.962 202.696 150.899C202.759 150.836 202.805 150.74 202.747 150.673C202.744 150.669 202.74 150.665 202.736 150.662C202.7 150.625 202.65 150.604 202.598 150.604C202.483 150.62 202.375 150.665 202.283 150.733C202.23 150.772 202.199 150.862 202.21 150.927C202.233 151.064 202.401 151.109 202.401 151.248V151.914C202.401 151.957 202.398 152 202.392 152.043L202.218 153.263C202.21 153.315 202.166 153.354 202.114 153.354C202.055 153.354 202.008 153.401 202.008 153.459V171.994C202.008 172.547 201.561 172.994 201.008 172.994H200.848C200.296 172.994 199.848 173.442 199.848 173.994V174.351C199.848 174.903 199.4 175.351 198.848 175.351H197.705C197.153 175.351 196.705 174.903 196.705 174.351V173.209C196.705 172.982 196.521 172.798 196.294 172.798C196.082 172.798 195.904 172.637 195.884 172.425L195.527 168.673L195.361 166.18C195.342 165.892 195.466 165.631 195.675 165.432C195.808 165.304 195.92 165.151 195.92 164.942C195.92 164.733 195.837 164.533 195.69 164.386C195.542 164.239 195.343 164.156 195.134 164.156C194.926 164.156 194.726 164.239 194.579 164.386C194.431 164.533 194.349 164.733 194.349 164.942C194.349 165.089 194.376 165.209 194.432 165.312C194.624 165.666 194.92 165.989 194.894 166.391L194.741 168.673L194.366 172.612C194.356 172.717 194.268 172.798 194.161 172.798C194.048 172.798 193.956 172.89 193.956 173.004V176.235C193.956 176.289 194 176.333 194.054 176.333C194.108 176.333 194.152 176.377 194.152 176.431V200.866C194.152 201.418 193.704 201.866 193.152 201.866H188.474C187.922 201.866 187.474 201.418 187.474 200.866V192.012C187.474 191.904 187.457 191.797 187.423 191.695L187.329 191.414C187.295 191.312 187.278 191.205 187.278 191.098V189.6C187.278 189.432 187.142 189.296 186.974 189.296C186.814 189.296 186.681 189.171 186.671 189.011L186.492 186.153L186.334 184.259C186.31 183.966 186.497 183.744 186.634 183.484C186.668 183.42 186.689 183.334 186.689 183.207C186.689 183.051 186.627 182.901 186.516 182.791C186.406 182.68 186.256 182.618 186.1 182.618C185.943 182.618 185.793 182.68 185.683 182.791C185.572 182.901 185.51 183.051 185.51 183.207C185.51 183.288 185.544 183.369 185.596 183.45C185.757 183.696 185.889 183.966 185.865 184.259L185.707 186.153L185.528 189.011C185.518 189.171 185.385 189.296 185.225 189.296C185.057 189.296 184.921 189.432 184.921 189.6V189.689C184.921 189.906 184.745 190.082 184.528 190.082H183.5C183.092 190.082 182.761 189.751 182.761 189.342C182.761 189.072 182.613 188.823 182.375 188.693L180.773 187.819C180.659 187.757 180.533 187.725 180.404 187.725C180.275 187.725 180.148 187.757 180.035 187.819L178.368 188.728C178.17 188.836 178.047 189.043 178.047 189.269C178.047 189.609 177.771 189.885 177.431 189.885H176.279C176.062 189.885 175.886 189.709 175.886 189.492V189.403C175.886 189.236 175.75 189.1 175.583 189.1C175.422 189.1 175.289 188.975 175.279 188.815L175.101 185.957L174.943 184.062C174.919 183.769 175.105 183.548 175.243 183.288C175.277 183.223 175.297 183.138 175.297 183.011C175.297 182.855 175.235 182.705 175.125 182.594C175.014 182.484 174.864 182.422 174.708 182.422C174.552 182.422 174.402 182.484 174.291 182.594C174.181 182.705 174.119 182.855 174.119 183.011C174.119 183.092 174.152 183.173 174.205 183.253C174.366 183.5 174.498 183.769 174.473 184.062L174.315 185.957L174.137 188.815C174.127 188.975 173.994 189.1 173.833 189.1C173.666 189.1 173.53 189.236 173.53 189.403V190.901C173.53 191.009 173.512 191.116 173.478 191.218L173.384 191.499C173.351 191.601 173.333 191.708 173.333 191.815V224.914C173.333 225.31 173.012 225.631 172.616 225.631C172.335 225.631 172.08 225.795 171.964 226.051L171.272 227.574C171.225 227.676 171.3 227.791 171.412 227.791C171.497 227.791 171.566 227.86 171.566 227.945V230.916C171.566 231.468 171.118 231.916 170.566 231.916H169.979C169.662 231.916 169.405 232.173 169.405 232.489C169.405 232.626 169.356 232.759 169.267 232.863L167.33 235.122C167.151 235.331 166.89 235.451 166.615 235.451C166.095 235.451 165.673 235.873 165.673 236.393V239.772C165.673 239.989 165.497 240.165 165.281 240.165C165.064 240.165 164.888 240.341 164.888 240.558V241.245C164.888 241.516 164.668 241.736 164.397 241.736C164.126 241.736 163.906 241.956 163.906 242.227V247.021C163.906 247.574 163.458 248.021 162.906 248.021H161.254C160.875 248.021 160.567 248.329 160.567 248.709V249.101C160.567 249.264 160.699 249.396 160.861 249.396C161.024 249.396 161.156 249.528 161.156 249.691V255.081C161.156 255.547 160.832 255.952 160.378 256.057C99.2221 270.163 45.0869 287.189 0.299805 306.747C144.658 260.591 341.653 232.112 558.877 232.112C577.19 232.112 593.8 232.302 611.863 232.68C612.425 232.692 612.887 232.239 612.885 231.677L612.693 175.155V173.976L611.121 151.39V147.087C611.121 146.534 611.569 146.087 612.121 146.087H612.675C613.227 146.087 613.675 145.639 613.675 145.087V144.417C613.675 144.038 613.367 143.73 612.987 143.73C612.608 143.73 612.3 143.422 612.3 143.042V140.98C612.3 140.763 612.476 140.587 612.693 140.587C612.91 140.587 613.085 140.412 613.085 140.195V139.034C613.085 138.482 612.638 138.034 612.085 138.034H611.695C611.156 138.034 610.714 137.607 610.696 137.068L610.139 120.75V118.885C610.139 118.83 610.183 118.786 610.238 118.786C610.292 118.786 610.336 118.742 610.336 118.688V116.724C610.336 116.561 610.204 116.429 610.041 116.429C609.878 116.429 609.747 116.298 609.747 116.135V114.76C609.747 114.597 609.878 114.465 610.041 114.465C610.204 114.465 610.336 114.334 610.336 114.171V112.409C610.336 112.243 610.201 112.109 610.036 112.109C609.874 112.109 609.742 111.981 609.735 111.82L609.188 97.5891C609.171 97.1522 609.521 96.7889 609.958 96.7889C610.384 96.7889 610.729 96.444 610.729 96.0184V95.2177C610.729 95.0007 610.904 94.8249 611.121 94.8249C611.338 94.8249 611.514 94.649 611.514 94.4321V90.2094C611.514 90.0466 611.382 89.9147 611.22 89.9147C611.057 89.9147 610.925 89.7828 610.925 89.6201V89.2273C610.925 89.0646 610.793 88.9327 610.63 88.9327C610.468 88.9327 610.336 88.8008 610.336 88.6381V84.9064C610.336 84.7437 610.468 84.6118 610.63 84.6118C610.793 84.6118 610.925 84.4799 610.925 84.3172V82.6477C610.925 82.2138 610.573 81.8621 610.139 81.8621C609.705 81.8621 609.354 81.5104 609.354 81.0765V77.6394C609.354 77.4767 609.486 77.3448 609.648 77.3448C609.811 77.3448 609.943 77.2129 609.943 77.0502V75.4789C609.943 75.3162 609.811 75.1843 609.648 75.1843C609.486 75.1843 609.354 75.0524 609.354 74.8897V70.5688C609.354 70.4061 609.486 70.2742 609.648 70.2742C609.811 70.2742 609.943 70.1423 609.943 69.9796V68.4083C609.943 68.2456 609.811 68.1137 609.648 68.1137C609.486 68.1137 609.354 67.9818 609.354 67.8191V63.6946C609.354 63.2065 609.749 62.8108 610.238 62.8108C610.726 62.8108 611.121 62.4151 611.121 61.9269V59.4719C611.121 59.2549 611.297 59.0791 611.514 59.0791C611.731 59.0791 611.907 58.9032 611.907 58.6863V55.1509C611.907 55.0425 611.819 54.9545 611.711 54.9545C611.602 54.9545 611.514 54.8666 611.514 54.7582V49.4732C611.514 48.9209 611.066 48.4732 610.514 48.4732H609.961C609.409 48.4732 608.961 48.0254 608.961 47.4732V42.6792C608.961 42.5165 609.093 42.3846 609.255 42.3846C609.418 42.3846 609.55 42.2527 609.55 42.09V41.9918C609.55 41.7748 609.374 41.599 609.157 41.599H608.961C608.635 41.599 608.372 41.3352 608.372 41.0097V31.8769C608.372 31.7142 608.504 31.5823 608.666 31.5823C608.829 31.5823 608.961 31.4504 608.961 31.2877V31.1895C608.961 30.9725 608.785 30.7966 608.568 30.7966H608.372C608.046 30.7966 607.783 30.5329 607.783 30.2075V21.5656C607.783 21.3486 607.958 21.1728 608.175 21.1728H608.372C608.48 21.1728 608.568 21.0848 608.568 20.9764C608.568 20.8679 608.48 20.78 608.372 20.78H608.077C607.806 20.78 607.586 20.5601 607.586 20.2889V14.2986C607.586 14.1901 607.674 14.1022 607.782 14.1022C607.891 14.1022 607.979 14.0142 607.979 13.9058V13.6111C607.979 13.4484 607.847 13.3165 607.684 13.3165C607.522 13.3165 607.39 13.1847 607.39 13.022V7.22799C607.39 7.11951 607.478 7.03156 607.586 7.03156C607.695 7.03156 607.783 6.94362 607.783 6.83514V6.54058C607.783 6.37785 607.651 6.24594 607.488 6.24594C607.325 6.24594 607.193 6.11403 607.193 5.95131V1.72862C607.193 1.62014 607.281 1.53221 607.39 1.53221C607.498 1.53221 607.586 1.44427 607.586 1.3358V1.13938C607.586 0.922445 607.41 0.746582 607.193 0.746582C606.976 0.746582 606.8 0.922445 606.8 1.13938V1.33582C606.8 1.44428 606.888 1.53221 606.997 1.53221C607.105 1.53221 607.193 1.62013 607.193 1.7286V5.65674C607.193 5.87367 607.017 6.04954 606.8 6.04954C606.583 6.04954 606.408 6.2254 606.408 6.44234V6.83515C606.408 6.94363 606.496 7.03156 606.604 7.03156C606.713 7.03156 606.8 7.1195 606.8 7.22797V13.0219C606.8 13.1846 606.669 13.3165 606.506 13.3165C606.343 13.3165 606.211 13.4485 606.211 13.6112V13.9057C606.211 14.0142 606.299 14.1022 606.408 14.1022C606.516 14.1022 606.604 14.1901 606.604 14.2986V19.8961C606.604 20.1673 606.384 20.3871 606.113 20.3871H606.015C605.798 20.3871 605.622 20.563 605.622 20.78C605.622 20.9969 605.798 21.1728 606.015 21.1728C606.232 21.1728 606.408 21.3486 606.408 21.5656V30.011C606.408 30.3364 606.144 30.6002 605.818 30.6002H605.622C605.405 30.6002 605.229 30.7761 605.229 30.9931V31.0912C605.229 31.254 605.361 31.3859 605.524 31.3859C605.687 31.3859 605.818 31.5178 605.818 31.6805V40.7151C605.818 41.0948 605.511 41.4026 605.131 41.4026H604.836C604.619 41.4026 604.444 41.5784 604.444 41.7954V41.8936C604.444 42.0563 604.576 42.1882 604.738 42.1882C604.901 42.1882 605.033 42.3201 605.033 42.4828V47.2767C605.033 47.829 604.585 48.2767 604.033 48.2767H603.48C602.927 48.2767 602.48 48.7245 602.48 49.2767V54.5617C602.48 54.6702 602.392 54.7581 602.283 54.7581C602.175 54.7581 602.087 54.8461 602.087 54.9546V58.4898C602.087 58.7068 602.263 58.8827 602.479 58.8827C602.696 58.8827 602.872 59.0585 602.872 59.2755V61.7305C602.872 62.2187 603.268 62.6144 603.756 62.6144C604.244 62.6144 604.64 63.0101 604.64 63.4982V67.6227C604.64 67.7854 604.508 67.9173 604.345 67.9173C604.183 67.9173 604.051 68.0492 604.051 68.2119V69.7831C604.051 69.9459 604.183 70.0778 604.345 70.0778C604.508 70.0778 604.64 70.2097 604.64 70.3724V74.6933C604.64 74.856 604.508 74.9879 604.345 74.9879C604.183 74.9879 604.051 75.1198 604.051 75.2825V76.8537C604.051 77.0165 604.183 77.1484 604.345 77.1484C604.508 77.1484 604.64 77.2803 604.64 77.443V80.9783C604.64 81.3579 604.332 81.6657 603.953 81.6657C603.573 81.6657 603.265 81.9735 603.265 82.3531V84.1208C603.265 84.2835 603.397 84.4154 603.56 84.4154C603.722 84.4154 603.854 84.5473 603.854 84.71V88.4417C603.854 88.6044 603.722 88.7363 603.56 88.7363C603.397 88.7363 603.265 88.8682 603.265 89.0309V89.3255C603.265 89.5425 603.089 89.7183 602.872 89.7183C602.655 89.7183 602.48 89.8942 602.48 90.1111V94.2357C602.48 94.4526 602.655 94.6285 602.872 94.6285C603.089 94.6285 603.265 94.8043 603.265 95.0213V95.822C603.265 96.2476 603.61 96.5925 604.036 96.5925C604.473 96.5925 604.822 96.9558 604.806 97.3927L604.258 111.623C604.252 111.785 604.12 111.912 603.958 111.912C603.792 111.912 603.658 112.047 603.658 112.212V113.974C603.658 114.137 603.79 114.269 603.953 114.269C604.115 114.269 604.247 114.401 604.247 114.564V115.939C604.247 116.101 604.115 116.233 603.953 116.233C603.79 116.233 603.658 116.365 603.658 116.528V118.492C603.658 118.546 603.702 118.59 603.756 118.59C603.81 118.59 603.854 118.634 603.854 118.688V120.554L603.298 136.872C603.28 137.411 602.838 137.838 602.299 137.838H601.908C601.356 137.838 600.908 138.285 600.908 138.838V139.998C600.908 140.215 601.084 140.391 601.301 140.391C601.518 140.391 601.694 140.567 601.694 140.784V143.141C601.694 143.466 601.43 143.73 601.105 143.73C600.779 143.73 600.516 143.994 600.516 144.319V145.087C600.516 145.639 600.963 146.087 601.516 146.087H602.069C602.621 146.087 603.069 146.534 603.069 147.087V151.39L602.283 173.976V175.155L601.905 187.457C601.898 187.675 601.666 187.816 601.453 187.769C601.272 187.73 601.124 187.89 601.146 188.073L601.429 190.478C601.465 190.79 601.222 191.064 600.908 191.064C600.595 191.064 600.351 190.79 600.388 190.478L600.543 189.163C600.611 188.582 599.922 188.116 599.337 188.116C598.752 188.116 598.063 188.582 598.131 189.163L598.252 190.186C598.307 190.653 597.942 191.064 597.471 191.064C597.001 191.064 596.636 190.653 596.691 190.186L596.811 189.163C596.879 188.582 596.19 188.116 595.605 188.116C595.02 188.116 594.331 188.582 594.4 189.163L594.554 190.478C594.591 190.79 594.348 191.064 594.034 191.064C593.72 191.064 593.477 190.79 593.514 190.478L593.669 189.163C593.737 188.582 593.048 188.116 592.463 188.116C591.878 188.116 591.189 188.582 591.257 189.163L591.412 190.478C591.449 190.79 591.205 191.064 590.892 191.064C590.578 191.064 590.335 190.79 590.371 190.478L590.526 189.163C590.594 188.582 589.905 188.116 589.32 188.116C588.735 188.116 588.046 188.582 588.115 189.163L588.253 190.341C588.299 190.726 587.998 191.064 587.611 191.064C587.253 191.064 586.964 190.774 586.964 190.417V183.895C586.964 183.841 587.007 183.797 587.062 183.797C587.116 183.797 587.16 183.753 587.16 183.698V182.913C587.16 182.425 586.764 182.029 586.276 182.029H585.603C585.135 182.029 584.73 181.705 584.627 181.249L584.011 178.509C583.777 177.468 582.294 177.468 582.06 178.509L581.421 181.348C581.331 181.746 580.978 182.029 580.569 182.029C580.087 182.029 579.696 182.42 579.696 182.902V183.993C579.696 184.101 579.784 184.189 579.893 184.189C580.001 184.189 580.089 184.277 580.089 184.386V191.283C580.089 191.487 579.924 191.653 579.72 191.653C579.498 191.653 579.326 191.46 579.352 191.24L579.527 189.752C579.596 189.171 578.907 188.705 578.322 188.705C577.737 188.705 577.048 189.171 577.116 189.752L577.271 191.068C577.307 191.379 577.064 191.653 576.75 191.653C576.437 191.653 576.193 191.379 576.23 191.068L576.385 189.752C576.453 189.171 575.764 188.705 575.179 188.705C574.594 188.705 573.905 189.171 573.973 189.752L574.117 190.97C574.16 191.334 573.876 191.653 573.51 191.653C573.144 191.653 572.86 191.334 572.903 190.97L573.046 189.752C573.114 189.171 572.425 188.705 571.84 188.705C571.255 188.705 570.566 189.171 570.635 189.752L570.778 190.97C570.821 191.334 570.537 191.653 570.171 191.653C569.805 191.653 569.521 191.334 569.564 190.97L569.707 189.752C569.775 189.171 569.086 188.705 568.501 188.705C567.916 188.705 567.227 189.171 567.296 189.752L567.451 191.068C567.487 191.379 567.244 191.653 566.93 191.653C566.616 191.653 566.373 191.379 566.41 191.068L566.565 189.752C566.633 189.171 565.944 188.705 565.359 188.705C564.774 188.705 564.085 189.171 564.153 189.752L564.308 191.068C564.345 191.379 564.101 191.653 563.788 191.653C563.474 191.653 563.231 191.379 563.267 191.068L563.422 189.752C563.49 189.171 562.801 188.705 562.216 188.705C561.631 188.705 560.942 189.171 561.011 189.752L561.166 191.068C561.202 191.379 560.959 191.653 560.645 191.653C560.331 191.653 560.088 191.379 560.125 191.068L560.398 188.741C560.425 188.514 560.247 188.349 560.03 188.421C559.83 188.487 559.663 188.339 559.663 188.128V150.015L559.27 144.516V144.123C559.27 143.906 559.446 143.73 559.663 143.73C559.88 143.73 560.056 143.554 560.056 143.337V142.453C560.056 142.291 560.188 142.159 560.351 142.159C560.513 142.159 560.645 142.027 560.645 141.864V138.373C560.645 138.186 560.493 138.034 560.306 138.034C560.157 138.034 560.026 137.937 559.982 137.795L559.297 135.567C559.279 135.51 559.267 135.451 559.26 135.392C559.126 134.238 557.451 134.238 557.317 135.392C557.31 135.451 557.297 135.51 557.28 135.567L556.594 137.795C556.55 137.937 556.419 138.034 556.27 138.034H556.241C556.07 138.034 555.931 138.173 555.931 138.344C555.931 138.568 555.701 138.717 555.496 138.626L554.358 138.12C554.23 138.063 554.091 138.034 553.951 138.034H552.414C551.862 138.034 551.414 137.586 551.414 137.034V131.749C551.414 131.424 551.15 131.16 550.825 131.16C550.499 131.16 550.236 130.896 550.236 130.571V120.183C550.236 120.062 550.138 119.965 550.018 119.965C549.916 119.965 549.827 119.894 549.805 119.794L549.114 116.686C549.081 116.536 548.948 116.429 548.795 116.429C548.614 116.429 548.468 116.283 548.468 116.103V111.127C548.468 111.018 548.556 110.93 548.664 110.93C548.773 110.93 548.861 110.842 548.861 110.734V108.671C548.861 108.509 548.993 108.377 549.155 108.377C549.318 108.377 549.45 108.245 549.45 108.082V105.136C549.45 104.973 549.318 104.842 549.155 104.842C548.993 104.842 548.861 104.71 548.861 104.547V96.9596C548.861 96.8653 548.937 96.7889 549.031 96.7889C549.144 96.7889 549.225 96.6826 549.196 96.5743L548.468 93.8429L547.327 90.5844C547.187 90.1833 546.809 89.9147 546.384 89.9147H544.416C543.922 89.9147 543.503 89.5544 543.428 89.0664L538.463 56.7042C538.391 56.2346 538.94 55.9272 539.303 56.234C539.707 56.576 540.302 56.1571 540.116 55.6614L539.826 54.8891C539.71 54.5802 539.816 54.232 540.085 54.0402L540.131 54.0076C540.784 53.5409 540.422 52.51 539.62 52.5546L539.408 52.5663C539.082 52.5845 538.79 52.3658 538.715 52.0476C538.552 51.3547 537.565 51.3547 537.402 52.0476C537.327 52.3658 537.035 52.5845 536.709 52.5663L536.497 52.5546C535.695 52.51 535.333 53.5409 535.986 54.0076L536.032 54.0402C536.3 54.232 536.407 54.5802 536.291 54.8891L536.001 55.6614C535.815 56.1571 536.41 56.576 536.814 56.234C537.177 55.9272 537.726 56.2346 537.654 56.7042L532.689 89.0664C532.614 89.5544 532.195 89.9147 531.701 89.9147H529.93C529.505 89.9147 529.126 90.1833 528.986 90.5844L527.845 93.8429L527.117 96.5743C527.088 96.6826 527.17 96.7889 527.282 96.7889C527.376 96.7889 527.453 96.8653 527.453 96.9596V104.547C527.453 104.71 527.321 104.842 527.158 104.842C526.995 104.842 526.863 104.973 526.863 105.136V108.082C526.863 108.245 526.995 108.377 527.158 108.377C527.321 108.377 527.453 108.509 527.453 108.671V110.734C527.453 110.842 527.54 110.93 527.649 110.93C527.757 110.93 527.845 111.018 527.845 111.127V116.692C527.845 116.872 527.699 117.019 527.518 117.019C527.365 117.019 527.233 117.125 527.199 117.275L526.527 120.298C526.494 120.448 526.361 120.554 526.208 120.554C526.028 120.554 525.881 120.7 525.881 120.881V131.356C525.881 131.573 525.705 131.749 525.489 131.749C525.272 131.749 525.096 131.925 525.096 132.142V137.651C525.096 138.188 524.66 138.623 524.124 138.623C523.988 138.623 523.853 138.652 523.729 138.707L522.585 139.216C522.38 139.307 522.15 139.157 522.15 138.933C522.15 138.762 522.011 138.623 521.84 138.623H521.811C521.662 138.623 521.531 138.526 521.487 138.384L520.801 136.156C520.784 136.099 520.771 136.04 520.764 135.981C520.63 134.827 518.955 134.827 518.821 135.981C518.814 136.04 518.802 136.099 518.784 136.156L518.099 138.384C518.055 138.526 517.924 138.623 517.775 138.623C517.588 138.623 517.436 138.775 517.436 138.962V142.453C517.436 142.616 517.568 142.748 517.73 142.748C517.893 142.748 518.025 142.88 518.025 143.042V143.926C518.025 144.143 518.201 144.319 518.418 144.319C518.635 144.319 518.811 144.495 518.811 144.712V145.105L518.418 150.604V191.676C518.418 191.88 518.252 192.046 518.048 192.046C517.827 192.046 517.655 191.852 517.681 191.633L517.856 190.145C517.924 189.564 517.235 189.098 516.65 189.098C516.065 189.098 515.376 189.564 515.445 190.145L515.599 191.461C515.636 191.772 515.393 192.046 515.079 192.046C514.765 192.046 514.522 191.772 514.559 191.461L514.713 190.145C514.782 189.564 514.093 189.098 513.508 189.098C512.923 189.098 512.234 189.564 512.302 190.145L512.457 191.46C512.494 191.772 512.25 192.046 511.937 192.046C511.623 192.046 511.38 191.772 511.416 191.46L511.571 190.145C511.639 189.564 510.95 189.098 510.365 189.098C509.78 189.098 509.091 189.564 509.16 190.145L509.314 191.46C509.351 191.772 509.108 192.046 508.794 192.046C508.48 192.046 508.237 191.772 508.274 191.46L508.428 190.145C508.497 189.564 507.808 189.098 507.223 189.098C506.638 189.098 505.949 189.564 506.017 190.145L506.172 191.46C506.209 191.772 505.965 192.046 505.652 192.046C505.338 192.046 505.095 191.772 505.131 191.46L505.286 190.145C505.354 189.564 504.665 189.098 504.08 189.098C503.495 189.098 502.806 189.564 502.875 190.145L502.984 191.07C503.045 191.59 502.639 192.046 502.116 192.046C501.594 192.046 501.188 191.59 501.249 191.07L501.358 190.145C501.426 189.564 500.737 189.098 500.152 189.098C499.567 189.098 498.878 189.564 498.947 190.145L499.09 191.363C499.133 191.726 498.849 192.046 498.483 192.046C498.117 192.046 497.833 191.726 497.876 191.363L498.019 190.145C498.087 189.564 497.398 189.098 496.813 189.098C496.228 189.098 495.539 189.564 495.608 190.145L495.783 191.633C495.809 191.852 495.637 192.046 495.415 192.046C495.211 192.046 495.046 191.88 495.046 191.676V184.68C495.046 184.626 495.09 184.582 495.144 184.582C495.198 184.582 495.242 184.538 495.242 184.484V183.422C495.242 182.87 494.794 182.422 494.242 182.422H493.292C492.825 182.422 492.419 182.098 492.317 181.641L491.7 178.902C491.466 177.861 489.983 177.861 489.749 178.902L489.13 181.655C489.029 182.103 488.631 182.422 488.171 182.422C487.629 182.422 487.189 182.861 487.189 183.404V184.386C487.189 184.494 487.277 184.582 487.386 184.582C487.494 184.582 487.582 184.67 487.582 184.779V191.676C487.582 191.88 487.417 192.046 487.212 192.046C486.991 192.046 486.819 191.853 486.845 191.633L487.02 190.145C487.089 189.564 486.399 189.098 485.815 189.098C485.23 189.098 484.541 189.564 484.609 190.145L484.764 191.46C484.8 191.772 484.557 192.046 484.243 192.046C483.93 192.046 483.686 191.772 483.723 191.46L483.878 190.145C483.946 189.564 483.257 189.098 482.672 189.098C482.087 189.098 481.398 189.564 481.466 190.145L481.621 191.46C481.658 191.772 481.414 192.046 481.101 192.046C480.787 192.046 480.544 191.772 480.58 191.46L480.735 190.145C480.804 189.564 480.114 189.098 479.53 189.098C478.945 189.098 478.256 189.564 478.324 190.145L478.444 191.168C478.499 191.635 478.134 192.046 477.664 192.046C477.193 192.046 476.828 191.635 476.883 191.168L477.004 190.145C477.072 189.564 476.383 189.098 475.798 189.098C475.213 189.098 474.524 189.564 474.592 190.145L474.747 191.46C474.784 191.772 474.54 192.046 474.227 192.046C473.913 192.046 473.67 191.772 473.706 191.46L473.861 190.145C473.929 189.564 473.24 189.098 472.655 189.098C472.07 189.098 471.381 189.564 471.45 190.145L471.605 191.46C471.641 191.772 471.398 192.046 471.084 192.046C470.771 192.046 470.527 191.772 470.564 191.46L470.719 190.145C470.787 189.564 470.098 189.098 469.513 189.098C468.928 189.098 468.239 189.564 468.307 190.145L468.462 191.46C468.499 191.772 468.255 192.046 467.942 192.046C467.628 192.046 467.385 191.772 467.421 191.46L467.576 190.145C467.644 189.564 466.955 189.098 466.37 189.098C465.785 189.098 465.096 189.564 465.165 190.145L465.32 191.46C465.356 191.772 465.113 192.046 464.799 192.046C464.486 192.046 464.242 191.772 464.279 191.46L464.434 190.145C464.502 189.564 463.813 189.098 463.228 189.098C462.643 189.098 461.954 189.564 462.022 190.145L462.177 191.46C462.214 191.772 461.97 192.046 461.657 192.046C461.343 192.046 461.1 191.772 461.136 191.46L461.291 190.145C461.359 189.564 460.67 189.098 460.085 189.098C459.501 189.098 458.811 189.564 458.88 190.145L459.035 191.46C459.071 191.772 458.828 192.046 458.514 192.046C458.201 192.046 457.957 191.772 457.994 191.46L458.149 190.145C458.217 189.564 457.528 189.098 456.943 189.098C456.358 189.098 455.669 189.564 455.737 190.145L455.852 191.116C455.91 191.611 455.523 192.046 455.025 192.046C454.566 192.046 454.193 191.673 454.193 191.214V189.001C454.193 188.73 453.973 188.51 453.702 188.51C453.431 188.51 453.211 188.291 453.211 188.019V185.859C453.211 185.805 453.255 185.761 453.309 185.761C453.364 185.761 453.408 185.717 453.408 185.662V184.091C453.408 183.929 453.276 183.797 453.113 183.797C452.95 183.797 452.818 183.665 452.818 183.502V183.104C452.818 183.042 452.81 182.981 452.794 182.922L451.109 176.744C451.08 176.636 451.161 176.53 451.273 176.53C451.367 176.53 451.444 176.453 451.444 176.36V175.94C451.444 175.832 451.356 175.744 451.247 175.744C451.139 175.744 451.051 175.656 451.051 175.548V170.834C451.051 170.725 451.139 170.637 451.247 170.637C451.356 170.637 451.444 170.55 451.444 170.441V170.245C451.444 170.028 451.268 169.852 451.051 169.852H450.522C450.132 169.852 449.785 169.607 449.654 169.24L448.85 166.989C448.534 166.104 447.283 166.104 446.967 166.989L446.163 169.24C446.032 169.607 445.684 169.852 445.295 169.852H444.766C444.549 169.852 444.373 170.028 444.373 170.245V170.441C444.373 170.55 444.461 170.637 444.569 170.637C444.678 170.637 444.766 170.725 444.766 170.834V175.548C444.766 175.656 444.678 175.744 444.569 175.744C444.461 175.744 444.373 175.832 444.373 175.94V176.36C444.373 176.453 444.449 176.53 444.543 176.53C444.655 176.53 444.737 176.636 444.707 176.744L443.023 182.922C443.006 182.981 442.998 183.042 442.998 183.104V183.502C442.998 183.665 442.866 183.797 442.704 183.797C442.541 183.797 442.409 183.929 442.409 184.091V185.073C442.409 185.127 442.453 185.171 442.507 185.171C442.561 185.171 442.605 185.215 442.605 185.27V187.43C442.605 187.701 442.386 187.921 442.114 187.921C441.843 187.921 441.623 188.141 441.623 188.412V201.848C441.623 202.4 441.176 202.848 440.623 202.848H439.266C439.049 202.848 438.874 203.024 438.874 203.241C438.874 203.458 438.698 203.634 438.481 203.634H438.186C437.807 203.634 437.499 203.326 437.499 202.946V202.062C437.499 201.52 437.059 201.08 436.517 201.08C435.974 201.08 435.535 201.52 435.535 202.062V204.008C435.535 204.561 435.087 205.008 434.535 205.008H433.981C433.429 205.008 432.981 205.456 432.981 206.008V211.275C432.981 211.828 432.534 212.275 431.981 212.275H430.643C430.09 212.275 429.643 211.828 429.643 211.275V201.098C429.643 200.546 429.195 200.098 428.643 200.098H424.161C423.609 200.098 423.161 200.546 423.161 201.098V201.768C423.161 202.256 422.765 202.652 422.277 202.652C421.789 202.652 421.394 202.256 421.394 201.768C421.394 201.28 420.998 200.884 420.51 200.884H414.93C414.378 200.884 413.93 200.436 413.93 199.884V190.1C413.93 189.547 413.482 189.1 412.93 189.1H411.74C411.207 189.1 410.767 188.681 410.741 188.148L406.691 105.416C406.675 105.094 406.41 104.842 406.088 104.842H405.681C405.573 104.842 405.485 104.754 405.485 104.645C405.485 104.537 405.397 104.449 405.288 104.449H404.797C404.418 104.449 404.11 104.141 404.11 103.761V103.467C404.11 102.924 403.67 102.485 403.128 102.485H400.843C400.35 102.485 399.93 102.124 399.852 101.636C399.11 97.0323 398.358 94.2357 397.432 94.2357C397.232 94.2357 397.083 94.3375 396.959 94.4894C396.719 94.7827 396.407 95.0213 396.028 95.0213H378.316C377.885 95.0213 377.541 94.6999 377.215 94.4186C377.064 94.2877 376.911 94.2357 376.809 94.2357C374.453 94.2357 372.685 112.305 372.685 134.499C372.685 140.556 372.856 146.271 373.039 151.482C373.06 152.067 372.576 152.544 371.992 152.516L369.906 152.417C369.372 152.392 368.953 151.952 368.953 151.418V138.034C368.953 137.817 369.129 137.641 369.346 137.641C369.563 137.641 369.739 137.465 369.739 137.249V110.537C369.739 110.32 369.563 110.145 369.346 110.145C369.129 110.145 368.953 109.969 368.953 109.752V90.7004C368.953 90.4834 369.129 90.3076 369.346 90.3076C369.563 90.3076 369.739 90.1317 369.739 89.9148V66.1676C369.739 65.6153 369.291 65.1676 368.739 65.1676H365.829C365.276 65.1676 364.829 64.7199 364.829 64.1676V63.418C364.829 62.8657 364.381 62.418 363.829 62.418H357.187C356.635 62.418 356.187 62.8657 356.187 63.418V64.382C356.187 64.8159 355.835 65.1676 355.401 65.1676C354.967 65.1676 354.616 65.5194 354.616 65.9532V150.397C354.616 150.766 354.412 151.105 354.086 151.279L353.14 151.784C352.474 152.139 351.67 151.656 351.67 150.901V146.283C351.67 146.066 351.845 145.89 352.062 145.89C352.279 145.89 352.455 145.714 352.455 145.498V116.921C352.455 116.432 352.059 116.037 351.571 116.037C351.083 116.037 350.688 115.641 350.688 115.153V90.995C350.688 90.8323 350.819 90.7004 350.982 90.7004C351.145 90.7004 351.277 90.5685 351.277 90.4058V59.8827C351.277 59.3304 350.829 58.8827 350.277 58.8827H347.563C347.011 58.8827 346.563 58.4349 346.563 57.8827V56.7402C346.563 56.1879 346.115 55.7402 345.563 55.7402H337.743C337.19 55.7402 336.743 56.1879 336.743 56.7402V57.8827C336.743 58.4349 336.295 58.8827 335.743 58.8827H335.582C335.03 58.8827 334.582 59.3304 334.582 59.8827V89.8165C334.582 90.1962 334.274 90.504 333.895 90.504C333.515 90.504 333.207 90.8117 333.207 91.1914V118.492C333.207 118.763 333.427 118.983 333.698 118.983C333.97 118.983 334.189 119.203 334.189 119.474V143.959C334.189 144.304 334.008 144.624 333.713 144.802C333.058 145.194 332.225 144.723 332.225 143.96V121.574C332.225 121.014 331.765 120.561 331.206 120.599C326.352 120.928 321.747 122.899 318.154 126.198C317.981 126.357 317.874 126.565 317.848 126.798C316.078 142.773 315.442 175.493 315.347 180.878C315.34 181.311 314.987 181.636 314.555 181.636C314.118 181.636 313.763 181.282 313.763 180.844V152.338C313.763 152.23 313.749 152.122 313.703 152.025C313.487 151.567 313.02 151.206 312.408 150.619C312.266 150.483 312.174 150.304 312.122 150.113C311.649 148.38 310.075 146.804 307.263 145.383C306.918 145.208 306.693 144.857 306.693 144.47V74.0059C306.693 73.572 306.341 73.2203 305.907 73.2203C305.473 73.2203 305.121 72.8685 305.121 72.4347V71.2562C305.121 71.0393 304.946 70.8634 304.729 70.8634C304.512 70.8634 304.336 70.6875 304.336 70.4706V69.3182C304.336 68.9409 304.125 68.5928 303.781 68.4381C303.134 68.1476 302.466 67.9077 301.782 67.7209C297.36 66.1614 292.722 65.3 288.034 65.1676Z"
        fill="#EF1C4F">
    </path>
</svg>
