<svg width="25" height="25" viewBox="0 0 25 25" fill="none" xmlns="http://www.w3.org/2000/svg">
<g clip-path="url(#clip0_138_1468)">
<path d="M24.9913 12.4756C24.9913 13.3545 24.3403 14.043 23.6024 14.043H22.2135L22.2439 21.8652C22.2526 23.5986 21.0069 25.0049 19.4661 25.0049H14.1667L12.5 21.875L16.0069 18.5889C16.3455 18.2715 16.3368 17.6807 15.9896 17.373L10.8767 12.8516C10.2431 12.29 9.40972 13.1934 9.88715 13.9258L12.5 17.9687L8.78906 21.4453C8.52431 21.6895 8.46354 22.1191 8.63715 22.4463L10 25H5.5599C4.02778 25 2.78212 23.5986 2.78212 21.875V14.043H1.38889C0.607639 14.043 0 13.3594 0 12.4756C0 12.0361 0.130208 11.6455 0.434028 11.3037L11.5625 0.390625C11.8663 0.0488281 12.2135 0 12.5174 0C12.8212 0 13.1684 0.0976562 13.4288 0.341797L18.0556 4.91699V3.125C18.0556 2.26074 18.6762 1.5625 19.4444 1.5625H20.8333C21.6016 1.5625 22.2222 2.26074 22.2222 3.125V9.0332L24.5139 11.2988C24.8611 11.6406 25.0347 12.0312 24.9913 12.4707V12.4756Z" fill="#004425" fill-opacity="0.4"/>
</g>
<defs>
<clipPath id="clip0_138_1468">
<rect width="25" height="25" fill="white"/>
</clipPath>
</defs>
</svg>
