<svg width="28" height="28" viewBox="0 0 28 28" fill="none" xmlns="http://www.w3.org/2000/svg">
<path d="M13.9885 2.33331C7.5485 2.33331 2.3335 7.55998 2.3335 14C2.3335 20.44 7.5485 25.6666 13.9885 25.6666C20.4402 25.6666 25.6668 20.44 25.6668 14C25.6668 7.55998 20.4402 2.33331 13.9885 2.33331ZM14.0002 23.3333C8.8435 23.3333 4.66683 19.1566 4.66683 14C4.66683 8.84331 8.8435 4.66665 14.0002 4.66665C19.1568 4.66665 23.3335 8.84331 23.3335 14C23.3335 19.1566 19.1568 23.3333 14.0002 23.3333ZM13.7435 8.16665H13.6735C13.2068 8.16665 12.8335 8.53998 12.8335 9.00665V14.5133C12.8335 14.9216 13.0435 15.3066 13.4052 15.5166L18.2468 18.4216C18.6435 18.655 19.1568 18.5383 19.3902 18.1416C19.4487 18.0472 19.4877 17.9419 19.5048 17.832C19.5218 17.7222 19.5165 17.6101 19.4893 17.5023C19.4621 17.3945 19.4135 17.2933 19.3463 17.2047C19.2792 17.1161 19.1949 17.042 19.0985 16.9866L14.5835 14.3033V9.00665C14.5835 8.53998 14.2102 8.16665 13.7435 8.16665Z" fill="#004425" fill-opacity="0.4"/>
</svg>
