<svg width="24" height="24" viewBox="0 0 24 24" fill="none" xmlns="http://www.w3.org/2000/svg">
<path d="M6 9H18V10.5H6V9ZM18 6H6V4.5H18V6ZM13.5 22.5L14.9883 24H3V0H21V15.7969L20.25 16.5352L19.5 15.7852V1.5H4.5V22.5H13.5ZM20.25 23.9648L20.2852 24H20.2148L20.25 23.9648ZM18 13.5L16.4883 15H6V13.5H18ZM14.2852 18L15.7852 19.5H6V18H14.2852ZM21.3164 20.25L23.9648 22.9102L22.9102 23.9648L20.25 21.3164L17.5898 23.9766L16.5352 22.9102L19.1953 20.25L16.5352 17.5898L17.5898 16.5352L20.25 19.1953L22.9102 16.5352L23.9648 17.6016L21.3164 20.25Z" fill="#004425" fill-opacity="0.4"/>
</svg>
