<svg width="23" height="23" viewBox="0 0 23 23" fill="none" xmlns="http://www.w3.org/2000/svg">
<path d="M17.1823 2.85278C16.7935 2.85372 16.4088 2.93163 16.0503 3.08201C15.6918 3.23239 15.3667 3.45226 15.0936 3.72894L3.72798 15.0938L3.68341 15.3188L2.8971 19.2719L2.67285 20.327L3.7287 20.1028L7.68182 19.3165L7.90607 19.2712L19.2717 7.90631C19.5491 7.63371 19.7694 7.30858 19.9198 6.94991C20.0702 6.59124 20.1477 6.2062 20.1477 5.81727C20.1477 5.42834 20.0702 5.0433 19.9198 4.68463C19.7694 4.32595 19.5491 4.00083 19.2717 3.72822C18.9984 3.45158 18.6731 3.23179 18.3145 3.08154C17.9559 2.93128 17.5711 2.85354 17.1823 2.85278ZM17.1823 4.22272C17.5445 4.22272 17.9096 4.38803 18.2604 4.7395C18.9597 5.43813 18.9597 6.19641 18.2604 6.89575L17.7443 7.38953L15.6096 5.25556L16.1041 4.7395C16.4556 4.38803 16.82 4.22272 17.1823 4.22272ZM14.5998 6.26685L16.733 8.40081L8.04119 17.0919C7.57196 16.1739 6.82491 15.4273 5.90651 14.9587L14.5998 6.26685ZM4.98651 16.1274C5.41189 16.2985 5.7983 16.5539 6.12252 16.8781C6.44674 17.2023 6.70209 17.5887 6.87323 18.0141L4.51429 18.4856L4.98651 16.1274Z" fill="#004425" fill-opacity="0.4"/>
</svg>
