<svg width="22" height="22" viewBox="0 0 22 22" fill="none" xmlns="http://www.w3.org/2000/svg">
<path fill-rule="evenodd" clip-rule="evenodd" d="M12.5 13.5556C15.416 13.5556 17.7778 11.1938 17.7778 8.27778C17.7778 5.36181 15.416 3 12.5 3C9.58403 3 7.22222 5.36181 7.22222 8.27778C7.22222 11.1938 9.58403 13.5556 12.5 13.5556ZM16.7222 8.27778C16.7222 10.6106 14.8328 12.5 12.5 12.5C10.1672 12.5 8.27778 10.6106 8.27778 8.27778C8.27778 5.945 10.1672 4.05556 12.5 4.05556C14.8328 4.05556 16.7222 5.945 16.7222 8.27778ZM15.1574 14.5446L13.5556 19.1204V18.8333L13.2521 16.7111C13.349 16.6907 13.4381 16.6435 13.5094 16.5748C13.5808 16.5061 13.6313 16.4187 13.6553 16.3227L13.9192 15.2671C13.9387 15.1894 13.9402 15.1082 13.9236 15.0297C13.907 14.9513 13.8728 14.8776 13.8235 14.8144C13.7742 14.7512 13.7111 14.7 13.6391 14.6648C13.5671 14.6295 13.488 14.6112 13.4078 14.6111H11.5933C11.5131 14.6111 11.434 14.6294 11.362 14.6646C11.2899 14.6997 11.2268 14.7508 11.1775 14.814C11.1281 14.8772 11.0938 14.9508 11.0772 15.0292C11.0605 15.1076 11.0619 15.1888 11.0813 15.2666L11.3452 16.3222C11.3691 16.4183 11.4197 16.5058 11.491 16.5746C11.5623 16.6434 11.6515 16.6907 11.7484 16.7111L11.4518 18.7864L9.84 14.5388L9.82944 14.5161C9.75156 14.3562 9.62144 14.2277 9.4606 14.1518C9.29976 14.0759 9.11783 14.0571 8.94489 14.0986C8.76492 14.1424 8.56647 14.1884 8.35694 14.238C7.86242 14.3536 7.30456 14.4839 6.77572 14.6312C6.02997 14.8391 5.25731 15.1009 4.72056 15.4534C3.73203 16.1026 3 16.9613 3 18.0417V22H22V18.0417C22 16.9613 21.2685 16.1021 20.2794 15.4534C19.7432 15.1009 18.9706 14.8391 18.2248 14.6312C17.7005 14.4893 17.1733 14.3582 16.6436 14.238C16.4474 14.1924 16.2514 14.146 16.0556 14.0986C15.8828 14.0572 15.7009 14.0759 15.5402 14.1518C15.3794 14.2278 15.2494 14.3563 15.1716 14.5161L15.1574 14.5446ZM16.4288 15.2719L16.0525 15.1832L14.0353 20.9444H20.9444V18.0417C20.9444 17.4896 20.5729 16.9085 19.7005 16.3359C19.3131 16.081 18.6819 15.854 17.9419 15.6482C17.4404 15.5123 16.9361 15.3868 16.4293 15.2719H16.4288ZM8.95439 15.1816L11.141 20.9444H4.05556V18.0417C4.05556 17.4896 4.42711 16.9085 5.29953 16.3359C5.68692 16.081 6.31814 15.854 7.05808 15.6482C7.55958 15.5121 8.0639 15.3867 8.57069 15.2719L8.95439 15.1816Z" fill="#004425" fill-opacity="0.4"/>
</svg>
