<svg width="61" height="57" viewBox="0 0 61 57" fill="none" xmlns="http://www.w3.org/2000/svg">
<path d="M30.5 5.1665C27.217 5.1665 23.9661 5.77004 20.9329 6.94265C17.8998 8.11526 15.1438 9.83398 12.8224 12.0007C8.13395 16.3765 5.50003 22.3115 5.50003 28.4998C5.47818 33.8878 7.47701 39.1131 11.15 43.2698L6.15003 47.9365C5.80314 48.2646 5.56815 48.6813 5.47471 49.1339C5.38128 49.5866 5.43358 50.0549 5.62503 50.4798C5.83268 50.8997 6.16929 51.2525 6.59215 51.4934C7.015 51.7344 7.50503 51.8526 8.00003 51.8332H30.5C37.1304 51.8332 43.4893 49.3748 48.1777 44.999C52.8661 40.6231 55.5 34.6882 55.5 28.4998C55.5 22.3115 52.8661 16.3765 48.1777 12.0007C43.4893 7.62483 37.1304 5.1665 30.5 5.1665ZM30.5 47.1665H14.025L16.35 44.9965C16.8157 44.5593 17.077 43.9679 17.077 43.3515C17.077 42.7351 16.8157 42.1437 16.35 41.7065C13.0765 38.6546 11.038 34.6378 10.5818 30.3404C10.1256 26.043 11.2799 21.7309 13.8481 18.1387C16.4163 14.5466 20.2395 11.8967 24.6663 10.6404C29.0931 9.38421 33.8497 9.59938 38.1256 11.2493C42.4015 12.8992 45.9322 15.8818 48.1161 19.6889C50.3001 23.496 51.0022 27.8921 50.1029 32.1282C49.2035 36.3643 46.7583 40.1783 43.1839 42.9204C39.6095 45.6625 35.1269 47.1631 30.5 47.1665Z" fill="#004425"/>
</svg>
