<svg width="12" height="12" viewBox="0 0 12 12" fill="none" xmlns="http://www.w3.org/2000/svg">
<g clip-path="url(#clip0_581_2768)">
<path fill-rule="evenodd" clip-rule="evenodd" d="M6 -3C6.13259 -3 6.25975 -2.94356 6.3535 -2.8431C6.44726 -2.74264 6.49993 -2.60639 6.49993 -2.46432V10.1702L9.64549 6.79866C9.73936 6.69807 9.86668 6.64157 9.99944 6.64157C10.1322 6.64157 10.2595 6.69807 10.3534 6.79866C10.4473 6.89925 10.5 7.03567 10.5 7.17792C10.5 7.32017 10.4473 7.4566 10.3534 7.55718L6.35395 11.8426C6.30751 11.8925 6.25234 11.9321 6.19161 11.9591C6.13087 11.9861 6.06576 12 6 12C5.93424 12 5.86913 11.9861 5.80839 11.9591C5.74766 11.9321 5.69249 11.8925 5.64605 11.8426L1.64661 7.55718C1.55274 7.4566 1.5 7.32017 1.5 7.17792C1.5 7.03567 1.55274 6.89925 1.64661 6.79866C1.74048 6.69807 1.8678 6.64157 2.00056 6.64157C2.13332 6.64157 2.26064 6.69807 2.35451 6.79866L5.50007 10.1702V-2.46432C5.50007 -2.60639 5.55274 -2.74264 5.6465 -2.8431C5.74025 -2.94356 5.86741 -3 6 -3Z" fill="#5AC380"/>
</g>
<defs>
<clipPath id="clip0_581_2768">
<rect width="12" height="12" fill="white"/>
</clipPath>
</defs>
</svg>
