<svg width="22" height="12" viewBox="0 0 22 12" fill="none" xmlns="http://www.w3.org/2000/svg">
<g clip-path="url(#clip0_698_2780)">
<path fill-rule="evenodd" clip-rule="evenodd" d="M6.5 15C6.36741 15 6.24025 14.9436 6.1465 14.8431C6.05274 14.7426 6.00007 14.6064 6.00007 14.4643L6.00007 1.82977L2.85451 5.20134C2.76064 5.30193 2.63332 5.35843 2.50056 5.35843C2.3678 5.35843 2.24048 5.30193 2.14661 5.20134C2.05274 5.10075 2 4.96433 2 4.82208C2 4.67983 2.05274 4.5434 2.14661 4.44282L6.14605 0.157375C6.19249 0.10749 6.24766 0.0679102 6.30839 0.040905C6.36913 0.0138998 6.43424 -9.53674e-07 6.5 -9.53674e-07C6.56576 -9.53674e-07 6.63087 0.0138998 6.69161 0.040905C6.75234 0.0679102 6.80751 0.10749 6.85395 0.157375L10.8534 4.44282C10.9473 4.5434 11 4.67983 11 4.82208C11 4.96433 10.9473 5.10075 10.8534 5.20134C10.7595 5.30193 10.6322 5.35843 10.4994 5.35843C10.3667 5.35843 10.2394 5.30193 10.1455 5.20134L6.99993 1.82977L6.99993 14.4643C6.99993 14.6064 6.94726 14.7426 6.8535 14.8431C6.75975 14.9436 6.63259 15 6.5 15Z" fill="#A8A8A8"/>
</g>
<g clip-path="url(#clip1_698_2780)">
<path fill-rule="evenodd" clip-rule="evenodd" d="M15.5 -3C15.6326 -3 15.7597 -2.94356 15.8535 -2.8431C15.9473 -2.74264 15.9999 -2.60639 15.9999 -2.46432V10.1702L19.1455 6.79866C19.2394 6.69807 19.3667 6.64157 19.4994 6.64157C19.6322 6.64157 19.7595 6.69807 19.8534 6.79866C19.9473 6.89925 20 7.03567 20 7.17792C20 7.32017 19.9473 7.4566 19.8534 7.55718L15.854 11.8426C15.8075 11.8925 15.7523 11.9321 15.6916 11.9591C15.6309 11.9861 15.5658 12 15.5 12C15.4342 12 15.3691 11.9861 15.3084 11.9591C15.2477 11.9321 15.1925 11.8925 15.146 11.8426L11.1466 7.55718C11.0527 7.4566 11 7.32017 11 7.17792C11 7.03567 11.0527 6.89925 11.1466 6.79866C11.2405 6.69807 11.3678 6.64157 11.5006 6.64157C11.6333 6.64157 11.7606 6.69807 11.8545 6.79866L15.0001 10.1702V-2.46432C15.0001 -2.60639 15.0527 -2.74264 15.1465 -2.8431C15.2403 -2.94356 15.3674 -3 15.5 -3Z" fill="#A8A8A8"/>
</g>
<defs>
<clipPath id="clip0_698_2780">
<rect width="12" height="12" fill="white" transform="translate(12.5 12) rotate(-180)"/>
</clipPath>
<clipPath id="clip1_698_2780">
<rect width="12" height="12" fill="white" transform="translate(9.5)"/>
</clipPath>
</defs>
</svg>
