<svg width="12" height="12" viewBox="0 0 12 12" fill="none" xmlns="http://www.w3.org/2000/svg">
<g clip-path="url(#clip0_698_2543)">
<path fill-rule="evenodd" clip-rule="evenodd" d="M6 15C5.86741 15 5.74025 14.9436 5.6465 14.8431C5.55274 14.7426 5.50007 14.6064 5.50007 14.4643L5.50007 1.82977L2.35451 5.20134C2.26064 5.30193 2.13332 5.35843 2.00056 5.35843C1.8678 5.35843 1.74048 5.30193 1.64661 5.20134C1.55274 5.10075 1.5 4.96433 1.5 4.82208C1.5 4.67983 1.55274 4.5434 1.64661 4.44282L5.64605 0.157375C5.69249 0.107489 5.74766 0.0679105 5.80839 0.0409053C5.86913 0.0139002 5.93424 -5.86067e-07 6 -5.86067e-07C6.06576 -5.86067e-07 6.13087 0.0139002 6.19161 0.0409053C6.25234 0.0679105 6.30751 0.107489 6.35395 0.157375L10.3534 4.44282C10.4473 4.5434 10.5 4.67983 10.5 4.82208C10.5 4.96433 10.4473 5.10075 10.3534 5.20134C10.2595 5.30193 10.1322 5.35843 9.99944 5.35843C9.86668 5.35843 9.73936 5.30193 9.64549 5.20134L6.49993 1.82977L6.49993 14.4643C6.49993 14.6064 6.44726 14.7426 6.3535 14.8431C6.25975 14.9436 6.13259 15 6 15V15Z" fill="#BB0101"/>
</g>
<defs>
<clipPath id="clip0_698_2543">
<rect width="12" height="12" fill="white" transform="translate(12 12) rotate(-180)"/>
</clipPath>
</defs>
</svg>
