<svg width="23" height="23" viewBox="0 0 23 23" fill="none" xmlns="http://www.w3.org/2000/svg">
<path d="M20.9824 4.86157L20.9828 4.8619C21.005 4.88011 21.0235 4.90252 21.0371 4.92785C21.0506 4.95318 21.0591 4.98095 21.0619 5.00955C21.0648 5.03816 21.062 5.06704 21.0536 5.09456C21.0453 5.12207 21.0317 5.14767 21.0134 5.1699L21.0131 5.17032L14.5445 13.0763C14.5252 13.0999 14.5011 13.1192 14.4739 13.133C14.4466 13.1467 14.4168 13.1546 14.3863 13.1562C14.3558 13.1577 14.3253 13.1528 14.2968 13.1418C14.2684 13.1309 14.2426 13.1142 14.2211 13.0928C14.221 13.0927 14.2209 13.0926 14.2208 13.0925L10.5023 9.37401L10.0885 8.96025L9.74438 9.43348L4.49601 16.65C4.46121 16.6916 4.41215 16.7188 4.35829 16.7262C4.30223 16.734 4.24533 16.7197 4.19956 16.6864C4.1538 16.6531 4.12272 16.6034 4.11287 16.5476C4.1034 16.4941 4.11424 16.439 4.14314 16.3931L9.88612 8.49646L9.88638 8.49611C9.90495 8.47052 9.92885 8.44926 9.95643 8.4338C9.98402 8.41834 10.0146 8.40904 10.0461 8.40655C10.0777 8.40405 10.1093 8.40842 10.139 8.41935C10.1687 8.43027 10.1956 8.44748 10.2179 8.4698C10.218 8.46982 10.218 8.46984 10.218 8.46986L13.9682 12.2215L14.3589 12.6123L14.7088 12.1846L20.6744 4.8922C20.6744 4.89218 20.6744 4.89217 20.6744 4.89215C20.6926 4.86993 20.715 4.8515 20.7404 4.83793C20.7657 4.82435 20.7934 4.8159 20.8221 4.81305C20.8507 4.81021 20.8795 4.81303 20.9071 4.82135C20.9346 4.82968 20.9602 4.84335 20.9824 4.86157ZM21.5322 5.23938C21.5049 5.32978 21.46 5.4139 21.4001 5.48694L21.2994 4.47494C21.3725 4.53475 21.4331 4.60838 21.4778 4.69163C21.5224 4.77487 21.5501 4.8661 21.5595 4.96008C21.5688 5.05407 21.5596 5.14898 21.5322 5.23938Z" fill="#5AC380" stroke="#5AC380"/>
</svg>
