<svg width="24" height="25" viewBox="0 0 24 25" fill="none" xmlns="http://www.w3.org/2000/svg">
<path d="M14.272 10.945L18 2.5M9.316 11.132L5 2.5M12.761 10.548L8.835 2.5M14.36 2.5L13.32 5M6 16.5C6 18.0913 6.63214 19.6174 7.75736 20.7426C8.88258 21.8679 10.4087 22.5 12 22.5C13.5913 22.5 15.1174 21.8679 16.2426 20.7426C17.3679 19.6174 18 18.0913 18 16.5C18 14.9087 17.3679 13.3826 16.2426 12.2574C15.1174 11.1321 13.5913 10.5 12 10.5C10.4087 10.5 8.88258 11.1321 7.75736 12.2574C6.63214 13.3826 6 14.9087 6 16.5V16.5Z" stroke="#5AC380" stroke-linecap="round" stroke-linejoin="round"/>
</svg>
