<svg width="24" height="25" viewBox="0 0 24 25" fill="none" xmlns="http://www.w3.org/2000/svg">
<path fill-rule="evenodd" clip-rule="evenodd" d="M12 13.5C14.7625 13.5 17 11.2625 17 8.5C17 5.7375 14.7625 3.5 12 3.5C9.2375 3.5 7 5.7375 7 8.5C7 11.2625 9.2375 13.5 12 13.5ZM16 8.5C16 10.71 14.21 12.5 12 12.5C9.79 12.5 8 10.71 8 8.5C8 6.29 9.79 4.5 12 4.5C14.21 4.5 16 6.29 16 8.5ZM14.5175 14.437L13 18.772V18.5L12.7125 16.4895C12.8043 16.4702 12.8888 16.4254 12.9563 16.3603C13.0239 16.2953 13.0718 16.2125 13.0945 16.1215L13.3445 15.1215C13.363 15.0478 13.3644 14.9709 13.3487 14.8966C13.333 14.8223 13.3005 14.7525 13.2538 14.6926C13.2071 14.6327 13.1474 14.5842 13.0791 14.5508C13.0109 14.5175 12.936 14.5001 12.86 14.5H11.141C11.0651 14.5 10.9901 14.5173 10.9219 14.5507C10.8536 14.584 10.7938 14.6324 10.7471 14.6922C10.7003 14.7521 10.6678 14.8218 10.6521 14.8961C10.6363 14.9704 10.6376 15.0473 10.656 15.121L10.906 16.121C10.9287 16.2121 10.9765 16.295 11.0441 16.3601C11.1116 16.4253 11.1962 16.4701 11.288 16.4895L11.007 18.4555L9.48 14.4315L9.47 14.41C9.39621 14.2585 9.27294 14.1368 9.12057 14.0648C8.96819 13.9929 8.79584 13.9752 8.632 14.0145C8.4615 14.056 8.2735 14.0995 8.075 14.1465C7.6065 14.256 7.078 14.3795 6.577 14.519C5.8705 14.716 5.1385 14.964 4.63 15.298C3.6935 15.913 3 16.7265 3 17.75V21.5H21V17.75C21 16.7265 20.307 15.9125 19.37 15.298C18.862 14.964 18.13 14.716 17.4235 14.519C16.9268 14.3846 16.4273 14.2604 15.9255 14.1465C15.7396 14.1033 15.554 14.0593 15.3685 14.0145C15.2047 13.9752 15.0325 13.993 14.8802 14.0649C14.7279 14.1368 14.6047 14.2586 14.531 14.41L14.5175 14.437ZM15.722 15.126L15.3655 15.042L13.4545 20.5H20V17.75C20 17.227 19.648 16.6765 18.8215 16.134C18.4545 15.8925 17.8565 15.6775 17.1555 15.4825C16.6804 15.3537 16.2026 15.2349 15.7225 15.126H15.722ZM8.641 15.0405L10.7125 20.5H4V17.75C4 17.227 4.352 16.6765 5.1785 16.134C5.5455 15.8925 6.1435 15.6775 6.8445 15.4825C7.31961 15.3536 7.79738 15.2347 8.2775 15.126L8.641 15.0405Z" fill="#5AC380"/>
</svg>
