<svg width="26" height="25" viewBox="0 0 26 25" fill="none" xmlns="http://www.w3.org/2000/svg">
<path d="M22.6079 6.77722C22.588 6.72802 22.5566 6.6839 22.5161 6.64832C22.4756 6.61274 22.427 6.58667 22.3743 6.57214C22.3223 6.55216 22.2666 6.54271 22.2107 6.54439C22.1548 6.54608 22.0998 6.55885 22.0493 6.58191L21.9477 6.66003L17.8446 10.6053L15.4477 10.1464L14.9704 7.84167L19.0735 3.89636L19.1547 3.7987C19.1787 3.75009 19.192 3.69725 19.1938 3.64347C19.1955 3.5897 19.1857 3.53616 19.1649 3.4862C19.1498 3.43547 19.1227 3.3888 19.0857 3.34983C19.0487 3.31086 19.0028 3.28066 18.9516 3.26159C17.6851 2.73941 16.2846 2.59521 14.9318 2.84771C13.579 3.1002 12.3363 3.73773 11.3649 4.67761C10.3512 5.66144 9.68054 6.92392 9.44581 8.29034C9.21109 9.65675 9.42388 11.0595 10.0547 12.3046L3.69693 17.578L3.67661 17.5975C3.14572 18.1116 2.84778 18.8067 2.84778 19.5311C2.84778 20.2556 3.14572 20.9507 3.67661 21.4647C3.94068 21.7187 4.25419 21.9201 4.59923 22.0575C4.94427 22.195 5.31408 22.2657 5.68755 22.2657C6.06102 22.2657 6.43084 22.195 6.77587 22.0575C7.12091 21.9201 7.43442 21.7187 7.69849 21.4647L7.7188 21.4452L13.2032 15.3417C14.4997 15.9442 15.9585 16.1456 17.3789 15.9183C18.7993 15.6909 20.1116 15.046 21.1352 14.0721C22.1127 13.1381 22.7757 11.9432 23.0383 10.6425C23.3009 9.34168 23.1509 7.99504 22.6079 6.77722ZM20.5563 13.5155C19.6231 14.4114 18.4133 14.9926 17.108 15.1721C15.8026 15.3517 14.4719 15.12 13.3149 14.5116C13.2329 14.4637 13.1359 14.4453 13.041 14.4596C12.9462 14.4739 12.8598 14.52 12.7969 14.5897L7.10943 20.9178C6.92137 21.0987 6.69811 21.2421 6.4524 21.34C6.2067 21.4378 5.94335 21.4882 5.6774 21.4882C5.14028 21.4882 4.62516 21.283 4.24536 20.9178C4.05731 20.737 3.90813 20.5224 3.80636 20.2861C3.70458 20.0498 3.6522 19.7966 3.6522 19.5409C3.6522 19.0244 3.86557 18.5291 4.24536 18.1639L10.8266 12.6952C10.8967 12.6355 10.9439 12.5549 10.9604 12.4663C10.977 12.3777 10.9621 12.2863 10.918 12.2069C10.2832 11.094 10.0401 9.81337 10.225 8.55656C10.4099 7.29975 11.0129 6.13423 11.9438 5.23425C12.7243 4.4764 13.7067 3.93975 14.7834 3.6831C15.86 3.42644 16.9894 3.45968 18.0477 3.77917L14.2391 7.44128C14.1919 7.48657 14.157 7.54233 14.1376 7.60364C14.1181 7.66495 14.1146 7.72993 14.1274 7.79284L14.7063 10.5565C14.7198 10.6321 14.7574 10.7017 14.8137 10.7559C14.8701 10.8102 14.9426 10.8462 15.0211 10.8592L17.8954 11.4159C17.9608 11.4282 18.0284 11.4249 18.0921 11.4061C18.1559 11.3874 18.2139 11.3538 18.261 11.3085L22.0696 7.64636C22.4019 8.66397 22.4364 9.74988 22.1695 10.7851C21.9026 11.8204 21.3445 12.765 20.5563 13.5155Z" fill="#5AC380"/>
</svg>
